<svg xmlns="http://www.w3.org/2000/svg" xmlns:xlink="http://www.w3.org/1999/xlink" xmlns:dc="http://purl.org/dc/elements/1.1/" xmlns:cc="http://creativecommons.org/ns#" xmlns:rdf="http://www.w3.org/1999/02/22-rdf-syntax-ns#" xmlns:svg="http://www.w3.org/2000/svg"><defs><symbol viewBox="0 0 85.04 85.04" preserveAspectRatio="none" id="arrow-next">
<path d="M42.51968,4.25195c21.10089,0,38.26773,17.16683,38.26773,38.26773S63.62058,80.78741,42.51968,80.78741
	S4.25195,63.62058,4.25195,42.51968S21.41879,4.25195,42.51968,4.25195 M42.51968,0C19.03671,0,0,19.03671,0,42.51968
	s19.03671,42.51968,42.51969,42.51968s42.51968-19.03671,42.51968-42.51968S66.00266,0,42.51968,0L42.51968,0z M39.06647,56.06819
	l12.04208-12.06161c0.39985-0.4,0.62373-0.94198,0.62373-1.50746s-0.22388-1.10746-0.62373-1.50746l-12.002-12.02098
	c-0.83197-0.83231-2.17916-0.83231-3.01015,0c-0.831,0.8328-0.831,2.18261,0,3.01491l10.49741,10.51352L36.05632,53.05426
	c-0.83099,0.83231-0.83099,2.18163,0,3.01394c0.4155,0.41616,0.96053,0.62472,1.50508,0.62472
	C38.10594,56.69291,38.65097,56.48435,39.06647,56.06819z" />
</symbol><symbol viewBox="0 0 85.04 85.04" preserveAspectRatio="none" id="arrow-right">
	<path d="M43.85168,28.96936c-0.83008,0.83008-0.83008,2.17578,0,3.00586l8.41827,8.41895H27.63831
		c-1.17432,0-2.12598,0.95166-2.12598,2.12598s0.95166,2.12598,2.12598,2.12598h24.63153l-8.41815,8.41748
		c-0.83008,0.83008-0.83008,2.17676,0,3.00684c0.83057,0.83008,2.17627,0.83008,3.00635,0l12.04688-12.04688
		c0.41504-0.41504,0.62305-0.95947,0.62305-1.50342s-0.20801-1.08838-0.62305-1.50293L46.85803,28.96936
		C46.02795,28.13831,44.68225,28.13831,43.85168,28.96936z" />
</symbol><symbol viewBox="0 0 44 44" id="arrow-right-up">
<path d="M22,2.2
	c10.9,0,19.8,8.9,19.8,19.8c0,10.9-8.9,19.8-19.8,19.8C11.1,41.8,2.2,32.9,2.2,22c0,0,0,0,0,0C2.2,11.1,11.1,2.2,22,2.2 M22,0
	C9.8,0,0,9.8,0,22s9.8,22,22,22s22-9.8,22-22c0,0,0,0,0,0C44,9.8,34.2,0,22,0C22,0,22,0,22,0L22,0z M17.6,16.5
	c0,0.6,0.5,1.1,1.1,1.1c0,0,0,0,0,0l6.1,0l-9.1,9.1c-0.4,0.4-0.4,1.1,0,1.6c0.4,0.4,1.1,0.4,1.6,0l9.1-9.1l0,6.1
	c0,0.6,0.5,1.1,1.1,1.1c0.6,0,1.1-0.5,1.1-1.1v-8.8c0-0.6-0.5-1.1-1.1-1.1c0,0,0,0,0,0l-8.8,0C18.1,15.4,17.6,15.9,17.6,16.5
	C17.6,16.5,17.6,16.5,17.6,16.5z" />
</symbol><symbol viewBox="0 0 200 200" id="bubble-info">
	<path d="M 101.18164 14.019531 C 97.148523 13.991199 93.048828 14.246094 88.900391 14.800781 C 47.300391 20.300781 15.999609 56.5 16.099609 98.5 C 16.099609 117.9 22.299219 135.80039 33.699219 149.90039 L 16.800781 176.30078 C 15.900781 177.60078 15.899219 179.39922 16.699219 180.69922 C 16.699219 180.79922 16.800391 180.90039 16.900391 180.90039 C 17.900391 182.30039 19.499219 182.99922 21.199219 182.69922 L 63.199219 174.40039 C 63.499219 174.30039 63.799609 174.4 64.099609 174.5 C 76.199609 180.3 89.799217 183.39922 104.19922 182.69922 C 117.39922 182.09922 136.3 177.09922 149.5 167.19922 C 151.2 165.89922 151.69922 163.70078 150.69922 161.80078 C 149.49922 159.50078 146.50039 158.90039 144.40039 160.40039 C 131.50039 170.10039 115.60039 174.20078 99.900391 174.30078 C 87.700391 174.40078 76.299219 171.29961 66.199219 166.09961 C 65.399219 165.69961 64.4 165.49922 63.5 165.69922 L 29.300781 172.5 L 43 151 C 43.7 149.9 43.599219 148.59961 42.699219 147.59961 C 29.999219 132.79961 23.000781 112.99961 24.800781 91.599609 C 28.000781 54.799609 56.699609 25.999219 93.599609 22.699219 C 140.79961 18.499219 180.29922 57.899607 176.19922 105.09961 C 175.19922 116.79961 170.80078 132.00078 161.80078 143.30078 C 160.40078 145.10078 160.60039 147.59961 162.40039 149.09961 C 164.20039 150.59961 167.00039 150.4 168.40039 148.5 C 179.20039 135 184.20039 117 184.90039 102 C 187.0207 53.970312 148.77245 14.353846 101.18164 14.019531 z M 99.599609 51.099609 C 96.199609 51.099609 93.800781 53.299609 93.800781 56.599609 C 93.800781 60.199609 96.199609 62.400391 99.599609 62.400391 C 103.09961 62.400391 105.40039 60.199609 105.40039 56.599609 C 105.30039 53.299609 102.99961 51.099609 99.599609 51.099609 z M 98.599609 75.400391 C 95.799609 75.400391 94.900391 76.6 94.900391 78 L 94.900391 128.19922 C 94.900391 129.59922 95.899609 130.80078 98.599609 130.80078 L 100.5 130.80078 C 103.3 130.80078 104.30078 129.59922 104.30078 128.19922 L 104.30078 78 C 104.30078 76.6 103.2 75.400391 100.5 75.400391 L 98.599609 75.400391 z " />
</symbol><symbol viewBox="0 0 44 44" id="bulb">
<path d="M22,0C12.9,0,5.5,7.4,5.5,16.5c0,5.8,3.2,9.2,6.6,12.8l0.7,0.7c2.8,3,3.2,3,3.6,3h9.2v2.2h-8c-0.8,0-1.5,0.7-1.5,1.5l0,3.5
	c0,0.9,0.7,1.5,1.5,1.5c0,0,0,0,0,0h0.4c1.3,2.2,4.1,2.8,6.3,1.5c0.6-0.4,1.2-0.9,1.5-1.5h0.9c0.6,0,1.1-0.5,1.1-1.1
	c0-0.6-0.5-1.1-1.1-1.1h-8.4l0-2.2h8c0.9,0,1.5-0.7,1.5-1.5v-3.5c0-0.9-0.7-1.6-1.6-1.6h-9.5c-0.5-0.4-1.8-1.7-2.4-2.3l-0.7-0.7
	c-3.4-3.5-6-6.3-6-11.3C7.7,8.6,14.1,2.2,22,2.2c7.9,0,14.3,6.4,14.3,14.3c0,4.9-2.7,7.7-6,11.3l-0.7,0.7c-0.4,0.4-0.4,1.1,0,1.6
	c0.4,0.4,1.1,0.4,1.6,0l0.7-0.7c3.4-3.6,6.6-7,6.6-12.8C38.5,7.4,31.1,0,22,0z" />
</symbol><symbol viewBox="0 0 85.04 85.04" preserveAspectRatio="none" id="calendar">
<path d="M52.08661,34.62846c0,1.08776-0.30108,1.98845-1.28082,3.26425c-4.63244,5.89013-7.00529,13.43166-7.72073,17.93315
		c-0.18878,1.05112-0.86646,1.57571-2.10952,1.57571h-1.43185c-1.35536,0-2.10856-0.63646-1.92074-1.80136
		c0.82871-5.06466,3.69143-12.98035,8.24932-19.02091c0.26333-0.33751,0.1123-0.63742-0.30205-0.63742H34.15806
		c-0.6409,0-1.20531-0.30087-1.20531-1.65093V33.5783c0-1.31342,0.56441-1.68854,1.20531-1.68854h15.21686
		C51.25791,31.88976,52.08661,32.90231,52.08661,34.62846z M82.91406,60.23633c1.17383,0,2.12598-0.95215,2.12598-2.12598V19.84229
		c0-1.95361-1.58984-3.54297-3.54395-3.54297h-9.21191v-2.12598c0-1.17432-0.95215-2.12598-2.12598-2.12598
		s-2.12598,0.95166-2.12598,2.12598v2.12598h-4.25195v-2.12598c0-1.17432-0.95215-2.12598-2.12598-2.12598
		s-2.12598,0.95166-2.12598,2.12598v2.12598h-34.0166v-2.12598c0-1.17432-0.95166-2.12598-2.12598-2.12598
		s-2.12598,0.95166-2.12598,2.12598v2.12598h-4.25195v-2.12598c0-1.17432-0.95166-2.12598-2.12598-2.12598
		s-2.12598,0.95166-2.12598,2.12598v2.12598h-9.2124c-1.95361,0-3.54297,1.58936-3.54297,3.54297v49.60693
		c0,1.95312,1.58936,3.54297,3.54297,3.54297h79.36963c1.17383,0,2.12598-0.95215,2.12598-2.12598s-0.95215-2.12598-2.12598-2.12598
		H4.25244V20.55127h8.50342v2.12598c0,1.17432,0.95166,2.12598,2.12598,2.12598s2.12598-0.95166,2.12598-2.12598v-2.12598h4.25195
		v2.12598c0,1.17432,0.95166,2.12598,2.12598,2.12598s2.12598-0.95166,2.12598-2.12598v-2.12598h34.0166v2.12598
		c0,1.17432,0.95215,2.12598,2.12598,2.12598s2.12598-0.95166,2.12598-2.12598v-2.12598h4.25195v2.12598
		c0,1.17432,0.95215,2.12598,2.12598,2.12598s2.12598-0.95166,2.12598-2.12598v-2.12598h8.50391v37.55908
		C80.78809,59.28418,81.74023,60.23633,82.91406,60.23633z" />
</symbol><symbol viewBox="0 0 20 30" id="check"><path d="M9.197 30a.741.741 0 0 0 .66-.5L19.957 1a.753.753 0 1 0-1.422-.5L9.021 27.34 1.416 12.43a.754.754 0 0 0-1.344.68l8.405 16.48a.74.74 0 0 0 .672.41h.05" /></symbol><symbol viewBox="0 0 85.04 85.04" id="check-circle">
  <!-- ##################################################################################################### -->
  <!-- For positive version please edit color rgba(0,0,0,1); -->
  <!-- or -->
  <!-- For negative version please edit color rgba(255,255,255,1); -->
  <!-- ##################################################################################################### -->
  <path d="M 42.519531 0 A 42.51969 42.51969 0 1 0 85.039062 42.519531 A 42.51968 42.51968 0 0 0 42.519531 0 z M 42.519531 4.2519531 A 38.26773 38.26773 0 1 1 4.2519531 42.519531 A 38.31107 38.31107 0 0 1 42.519531 4.2519531 z M 51.046875 25.505859 A 2.126 2.126 0 0 0 49.015625 26.935547 L 40.744141 50.570312 L 35.205078 39.621094 A 2.126472 2.126472 0 1 0 31.410156 41.541016 L 39.205078 56.943359 A 2.12486 2.12486 0 0 0 41.101562 58.109375 C 41.148429 58.109348 41.195314 58.108395 41.242188 58.105469 A 2.12716 2.12716 0 0 0 43.109375 56.685547 L 53.029297 28.339844 A 2.126 2.126 0 0 0 51.046875 25.505859 z " />
</symbol><symbol viewBox="0 0 85.020576 44.637783" id="chevron-down">
  <path d="m 42.510787,44.637781 a 2.155,2.155 0 0 1 -1.526,-0.63 L 0.62278686,3.6717815 A 2.156,2.156 0 0 1 3.6727869,0.62378147 L 42.509787,39.434781 81.347787,0.62378147 a 2.156,2.156 0 0 1 3.05,3.04800003 l -40.362,40.3359995 a 2.155,2.155 0 0 1 -1.525,0.63 z" />
</symbol><symbol viewBox="0 0 85.04 85.04" id="clock">
  	<path d="M42.51953,85.03906A42.51953,42.51953,0,1,1,85.03906,42.51953,42.07364,42.07364,0,0,1,75.84863,68.9248a2.12636,2.12636,0,0,1-3.332-2.64258,37.85809,37.85809,0,0,0,8.27051-23.7627A38.25583,38.25583,0,1,0,63.63672,74.43848a2.12645,2.12645,0,1,1,2.34961,3.54492A42.34347,42.34347,0,0,1,42.51953,85.03906Z" />
  	<path d="M56.07031,53.06445L44.64551,41.63916V19.13379a2.126,2.126,0,1,0-4.252,0V42.51953a2.11907,2.11907,0,0,0,.62469,1.50507l12.0462,12.04572A2.12546,2.12546,0,0,0,56.07031,53.06445Z" />
</symbol><symbol viewBox="0 0 62.4 62.4" id="close">
<path d="M34.2,31.2L61.7,3.6
  c0.8-0.8,0.8-2.2,0-3c-0.8-0.8-2.2-0.8-3,0l0,0L31.2,28.2L3.6,0.6c-0.8-0.8-2.2-0.8-3,0s-0.8,2.2,0,3l27.6,27.6L0.6,58.7
  c-0.8,0.8-0.8,2.2,0,3c0.8,0.8,2.2,0.8,3,0l27.6-27.6l27.6,27.6c0.8,0.8,2.2,0.8,3,0s0.8-2.2,0-3L34.2,31.2z" />
</symbol><symbol viewBox="0 0 44 44" id="cross-circle">
<path d="M22,2.2
	c10.9,0,19.8,8.9,19.8,19.8c0,10.9-8.9,19.8-19.8,19.8C11.1,41.8,2.2,32.9,2.2,22c0,0,0,0,0,0C2.2,11.1,11.1,2.2,22,2.2 M22,0
	C9.8,0,0,9.8,0,22s9.8,22,22,22s22-9.8,22-22c0,0,0,0,0,0C44,9.8,34.2,0,22,0C22,0,22,0,22,0L22,0z M29,27.5L23.6,22l5.5-5.5
	c0.4-0.4,0.4-1.1,0-1.6c-0.4-0.4-1.1-0.4-1.6,0l0,0L22,20.4L16.6,15c-0.4-0.4-1.1-0.4-1.6,0c-0.4,0.4-0.4,1.1,0,1.6l5.5,5.5L15,27.5
	c-0.4,0.4-0.4,1.1,0,1.6s1.1,0.4,1.6,0l5.5-5.5l5.5,5.5c0.4,0.4,1.1,0.4,1.6,0C29.4,28.6,29.4,27.9,29,27.5z" />
</symbol><symbol viewBox="0 0 80 80" id="edit">
<path d="M53.2,24L24,53.2c-0.8,0.8-0.8,2.1,0,2.8c0.4,0.4,0.9,0.6,1.4,0.6c0.5,0,1-0.2,1.4-0.6L56,26.9c0.8-0.8,0.8-2.1,0-2.8
  C55.3,23.3,53.9,23.3,53.2,24z" />
<path d="M79.4,15.2L64.7,0.6c-0.8-0.8-2.1-0.8-2.8,0l-56,56c-0.3,0.3-0.5,0.6-0.5,0.9l-5.4,20c-0.2,0.7,0,1.4,0.6,2
  c0.3,0.3,0.9,0.7,1.9,0.5l20.2-5.5c0.4-0.1,0.7-0.3,0.9-0.6l39.2-39.1c0.8-0.8,0.8-2.1,0-2.8c-0.8-0.8-2.1-0.8-2.8,0L23.6,68.3
  L11.7,56.4l43.1-43.1l13.3,13.3c0.8,0.8,2,0.8,2.8,0c0.8-0.8,8.5-8.6,8.5-8.6C80.2,17.3,80.2,16,79.4,15.2z M20.6,70.9L4.8,75.2
  L9,59.4C9,59.4,20.6,70.9,20.6,70.9z M69.5,22.4L57.7,10.5l5.6-5.6l11.9,11.9C75.2,16.7,69.5,22.4,69.5,22.4z" />
</symbol><symbol viewBox="0 0 85.04 85.04" preserveAspectRatio="none" id="email">
	<path d="M67.44464,48.99542c-9.70172,0-17.64136,5.65613-18.88879,15.48505L4.35986,64.45673
		c-0.02832-0.02832-0.09375-0.11029-0.09326-0.26062c0.0257-9.79626-0.00482-38.77966-0.01355-46.02167l37.18671,21.91571
		c0.33344,0.19617,0.70642,0.29425,1.07996,0.29425c0.37347,0,0.74646-0.09808,1.07947-0.29425l37.18811-21.91553l-0.01306,23.04352
		c0,1.17407,0.95105,2.12561,2.12476,2.12561h0.00098c1.17371,0,2.12573-0.95056,2.12573-2.12366l0.01367-24.69324
		c0-2.22614-1.47833-4.47961-4.30322-4.47961L4.31934,12.04822c-1.50079,0-2.76385,0.68121-3.55573,1.91821
		C0.0542,15.07562-0.00049,16.2077,0,16.5293c0.00195,1.49219,0.04395,36.6698,0.01514,47.65509
		c-0.00293,1.24536,0.47064,2.40771,1.33484,3.27338c0.82507,0.8266,1.91431,1.28235,3.0675,1.28235l44.01703-0.00946
		c0.70178,10.58942,8.74042,16.30872,19.05603,16.30872c4.22949,0,7.96387-0.7207,11.06934-1.93555l1.48438-0.54004
		c0.67578-0.26953,0.81055-0.6748,0.62988-1.34961l-0.35938-1.25977c-0.22559-0.81055-0.58496-0.99023-1.30469-0.76465
		l-1.21582,0.49414c-2.69922,1.03516-6.7041,1.75488-10.03418,1.75488c-8.09961,0-14.93945-3.95898-14.93945-14.39941
		c0-9.31445,6.47949-14.62402,14.48926-14.62402c8.82031,0,13.81445,5.84961,13.81445,12.91406
		c0,5.40039-1.88965,8.28027-4.63477,8.28027c-1.125,0-1.5293-0.31543-1.5293-1.44043v-8.23438
		c0-4.18457-2.20508-6.61426-7.78516-6.61426c-2.33984,0-4.41016,0.44922-6.2998,1.21484L59.5257,59.0755
		c-0.58496,0.22461-0.6748,0.58496-0.54004,1.21484l0.26953,1.16992c0.18066,0.76465,0.54004,0.94434,1.125,0.71973l1.16992-0.4502
		c1.48535-0.49512,3.46484-0.94434,5.1748-0.94434c2.9248-0.0459,4.18555,1.0791,4.18555,3.64453v0.6748l-4.00488,0.22461
		c-6.03027,0.31543-8.73047,2.52051-8.73047,6.48047c0,2.96973,1.93555,5.12988,5.89551,5.12988
		c2.74414,0,5.35449-1.26074,6.92969-3.33008c0.4043,1.84473,1.93457,3.10449,4.54492,3.10449
		c5.39941,0,9.49414-4.72461,9.49414-11.96973C85.03937,56.64484,78.87433,48.99542,67.44464,48.99542z M75.60229,16.29657
		L42.51971,35.79303L9.4389,16.29742L75.60229,16.29657z M70.91046,68.97491c0,3.28418-3.24023,4.67969-5.80566,4.67969
		c-1.66406,0-2.6543-0.71973-2.6543-2.29492c0-1.93457,1.5293-3.24023,5.08496-3.41992l3.375-0.22461V68.97491z" />
</symbol><symbol viewBox="0 0 42.979 42.978001" id="exclamation-mark-circle">
  <path d="m 21.489,2.149 c 10.665,0 19.341,8.676 19.341,19.34 0,10.664 -8.676,19.34 -19.341,19.34 -10.664,0 -19.34,-8.676 -19.34,-19.34 0,-10.664 8.676,-19.34 19.34,-19.34 M 21.489,0 C 9.621,0 0,9.621 0,21.489 c 0,11.869 9.621,21.489 21.489,21.489 11.869,0 21.49,-9.62 21.49,-21.489 C 42.979,9.621 33.358,0 21.489,0" />
  <path d="m 20.0535,28.099 c 0,-0.855 0.573,-1.388 1.435,-1.388 0.838,0 1.437,0.533 1.437,1.388 0,0.831 -0.599,1.363 -1.437,1.363 -0.862,0 -1.435,-0.532 -1.435,-1.363 m 0.263,-4.623 -0.144,-9.29 c 0,-0.369 0.216,-0.67 0.981,-0.67 h 0.647 c 0.765,0 0.981,0.301 0.981,0.67 l -0.144,9.29 c 0,0.371 -0.215,0.67 -0.981,0.67 h -0.383 c -0.743,0 -0.957,-0.299 -0.957,-0.67" />
</symbol><symbol viewBox="0 0 85.04 85.04" id="gift">
  	<path d="M80.78711,14.59863H73.56982A16.72857,16.72857,0,0,0,43.757,6.47845a7.66344,7.66344,0,0,0-2.32568-.02283A16.93921,16.93921,0,0,0,28.14258,0,16.74316,16.74316,0,0,0,11.47046,14.59863H4.252A4.25652,4.25652,0,0,0,0,18.85059V31.18115a4.25652,4.25652,0,0,0,4.252,4.252v45.354a4.25652,4.25652,0,0,0,4.252,4.252H78.66113a2.126,2.126,0,1,0,0-4.252H44.64551v-45.354H76.53516V70.06738a2.126,2.126,0,1,0,4.252,0V35.43311a4.25652,4.25652,0,0,0,4.252-4.252V18.85059A4.25652,4.25652,0,0,0,80.78711,14.59863ZM56.99219,4.252A12.42834,12.42834,0,0,1,69.27264,14.59863H51.00909a8.485,8.485,0,0,0-3.17664-6.34625A12.51217,12.51217,0,0,1,56.99219,4.252ZM46.74286,14.59863H38.29669A4.23123,4.23123,0,0,1,46.74286,14.59863ZM28.14258,4.252a12.69368,12.69368,0,0,1,9.16516,3.92511,8.48384,8.48384,0,0,0-3.27728,6.42157H15.76831A12.49621,12.49621,0,0,1,28.14258,4.252ZM4.252,18.85059h36.1416V31.18115H4.252V18.85059Zm36.1416,61.93652H8.50391v-45.354H40.39355v45.354Zm4.252-49.606V18.85059h36.1416L80.79,31.18115H44.64551Z" />
</symbol><symbol viewBox="0 0 30 30" id="info-circle"><path d="M15 0C6.7 0 0 6.7 0 15s6.7 15 15 15 15-6.7 15-15S23.3 0 15 0zm0 1.5c7.5 0 13.5 6 13.5 13.5s-6 13.5-13.5 13.5S1.5 22.5 1.5 15 7.5 1.5 15 1.5z" /><path d="M15 7.885c.607 0 1.036.392 1.036.982 0 .642-.429 1.035-1.036 1.035-.625 0-1.036-.393-1.036-1.035.018-.59.43-.982 1.036-.982zm.179 4.339c.5 0 .66.214.66.464v8.963c0 .25-.178.464-.66.464h-.34c-.5 0-.678-.214-.678-.464v-8.963c0-.25.196-.464.678-.464z" /></symbol><symbol viewBox="0 0 30 30" id="info-inversed-circle"><path d="M15 0C6.7 0 0 6.7 0 15s6.7 15 15 15 15-6.7 15-15S23.3 0 15 0z" /><path d="M15 7.885c.607 0 1.036.392 1.036.982 0 .642-.429 1.035-1.036 1.035-.625 0-1.036-.393-1.036-1.035.018-.59.43-.982 1.036-.982zm.179 4.339c.5 0 .66.214.66.464v8.963c0 .25-.178.464-.66.464h-.34c-.5 0-.678-.214-.678-.464v-8.963c0-.25.196-.464.678-.464z" fill="#fff" /></symbol><symbol viewBox="0 0 85.039359 85.039359" id="leaf-circle">
    <path id="leaf-circle_path2023" d="m 62.535885,21.956499 c -0.409945,-0.475596 -1.036204,-0.706113 -1.656663,-0.609795 -3.365702,0.511858 -14.778074,2.256899 -20.330427,3.225972 -6.632961,1.157629 -8.247836,2.203018 -10.333019,3.812608 -2.923337,2.256646 -5.175197,5.919448 -5.888467,8.371467 -0.94516,3.234958 -0.907649,6.677826 0.10777,9.891423 0.838457,2.260545 2.090548,4.345184 3.692241,6.147308 0.535757,0.519814 0.876638,1.20793 0.965551,1.949103 -0.0014,1.485319 -0.370298,2.469742 -1.557721,3.969587 -1.204264,1.397574 -2.813244,2.386174 -4.604175,2.828927 -1.429007,0.295651 -0.990066,2.438622 0.440101,2.148633 2.298249,-0.543198 4.360972,-1.810894 5.883703,-3.615971 1.145811,-1.330904 1.840965,-2.990329 1.985868,-4.740527 0.01519,-0.146444 0.08927,-1.178632 0.108379,-1.525607 0.03399,-0.616343 0.07251,-1.315263 0.15207,-2.106339 0.400571,-3.985072 3.008687,-6.829608 5.126103,-8.51473 2.132519,-1.697204 5.104678,-2.61316 8.385782,-2.550973 0.567956,0.08628 1.109951,-0.268328 1.258361,-0.823299 0.190875,-0.739455 -0.41167,-1.443512 -1.171732,-1.369138 l -0.05186,-5.16e-4 c -3.78415,-0.06546 -7.257106,1.014899 -9.786169,3.027829 -3.327718,2.647713 -5.344825,5.897136 -5.867635,9.428319 -1.229539,-1.471361 -2.201462,-3.140015 -2.874676,-4.935412 -0.879234,-2.793528 -0.909204,-5.785219 -0.08611,-8.5958 0.607526,-2.087956 2.689692,-5.370076 5.122576,-7.248056 1.703747,-1.315011 2.934413,-2.264953 9.370241,-3.388117 5.249214,-0.916203 15.779375,-2.532347 19.709557,-3.131056 -1.184846,3.919106 -4.236838,14.088241 -4.236838,14.088241 -0.667202,2.340232 -2.697499,9.461624 -4.412575,11.8827 -1.581211,2.365503 -3.831986,4.205674 -6.464549,5.285232 -2.770742,1.097613 -5.809622,1.327308 -8.713869,0.658642 -1.422016,-0.340062 -1.93211,1.792963 -0.510094,2.133025 1.2324,0.295022 2.495278,0.443756 3.762498,0.443122 2.139678,-0.0093 4.259357,-0.412492 6.253036,-1.189378 3.035756,-1.232664 5.634281,-3.343746 7.462555,-6.062696 1.932107,-2.726746 3.966437,-9.862737 4.732313,-12.549159 0,0 3.313338,-11.034475 4.395456,-14.611675 0.183058,-0.599566 0.04413,-1.251146 -0.367578,-1.723894 z" />
    <path id="leaf-circle_path2025" d="m 60.755859,20.53125 c -3.36719,0.512084 -14.773915,2.257322 -20.349609,3.230469 -6.693409,1.168179 -8.581891,2.340823 -10.693359,3.970703 -3.102701,2.395104 -5.39407,6.107621 -6.175782,8.794922 -0.990375,3.391097 -0.951122,7.000515 0.113282,10.36914 l 0.0059,0.01953 0.0059,0.01953 c 0.87403,2.356451 2.179963,4.529622 3.84961,6.408203 l 0.01953,0.02148 0.02148,0.02148 c 0.391261,0.379617 0.633818,0.882411 0.707032,1.421875 -0.0106,1.292133 -0.266289,1.990363 -1.359375,3.375 -1.091879,1.263143 -2.546914,2.15979 -4.167969,2.560547 l 0.03125,-0.0078 c -0.55883,0.115618 -1.030279,0.462035 -1.28125,0.896484 -0.250971,0.43445 -0.302594,0.921662 -0.210938,1.369141 0.09166,0.447479 0.330853,0.876944 0.732422,1.177735 0.401569,0.30079 0.971966,0.433716 1.53125,0.320312 l 0.01172,-0.0039 0.01367,-0.002 c 2.467396,-0.583177 4.682283,-1.944201 6.318359,-3.88086 l 0.002,-0.002 c 1.257251,-1.461225 2.019734,-3.284096 2.179688,-5.205078 7.3e-5,-7.19e-4 0.0019,-0.0032 0.002,-0.0039 0.02828,-0.27961 0.089,-1.176956 0.109375,-1.546875 0.03399,-0.616364 0.07106,-1.300967 0.148437,-2.070313 0.368879,-3.669779 2.798449,-6.342094 4.820313,-7.951172 1.953671,-1.554865 4.739001,-2.43215 7.857422,-2.373046 l -0.109375,-0.0078 c 0.97632,0.148314 1.922616,-0.471783 2.177734,-1.425781 l 0.002,-0.0039 v -0.0039 c 0.326987,-1.266755 -0.743431,-2.516593 -2.044921,-2.392578 -3.93386,-0.05983 -7.580561,1.056305 -10.275391,3.201172 -2.82943,2.251248 -4.729305,4.976589 -5.652344,7.949219 -0.656095,-0.998328 -1.372887,-1.964323 -1.794922,-3.085938 -0.822095,-2.630326 -0.850811,-5.444718 -0.07617,-8.089844 v -0.002 c 0.531147,-1.825454 2.588674,-5.092982 4.833985,-6.826171 0.851879,-0.65751 1.483013,-1.149768 2.720703,-1.65625 1.23769,-0.506483 3.101141,-1.015918 6.289062,-1.572266 4.884332,-0.852516 13.967624,-2.246681 18.400391,-2.923828 -1.347564,4.468299 -3.859375,12.832031 -3.859375,12.832031 l -0.002,0.0059 -0.002,0.0059 c -0.333602,1.170118 -1.003916,3.522589 -1.800781,5.873047 -0.796866,2.350457 -1.764316,4.735027 -2.490235,5.759765 l -0.0078,0.0078 -0.0059,0.0098 c -1.489355,2.228087 -3.608652,3.960887 -6.08789,4.978516 C 42.601337,55.126949 39.737235,55.343422 37,54.714844 h -0.002 c -0.555203,-0.132157 -1.129573,-0.01768 -1.541016,0.269531 -0.411948,0.287564 -0.665137,0.70764 -0.771484,1.152344 -0.106347,0.444703 -0.07127,0.936084 0.166015,1.378906 0.237284,0.442822 0.698068,0.802623 1.253907,0.935547 1.295364,0.310095 2.623114,0.467463 3.955078,0.466797 h 0.002 0.002 c 2.24081,-0.0098 4.458965,-0.432489 6.546875,-1.246094 l 0.0059,-0.002 0.0059,-0.002 c 3.185142,-1.293322 5.910526,-3.509616 7.830078,-6.361328 1.080604,-1.529461 2.050828,-4.003463 2.904297,-6.486329 0.853577,-2.483181 1.556035,-4.946117 1.939453,-6.291015 l 0.0039,-0.01172 c 0.0054,-0.01783 3.309971,-11.023323 4.390625,-14.595703 v -0.002 c 0.264592,-0.868983 0.06459,-1.816347 -0.53125,-2.501953 -0.59492,-0.690194 -1.507781,-1.024545 -2.408203,-0.884766 z m 0.248047,1.628906 h 0.002 c 0.340496,-0.05286 0.681281,0.07299 0.90625,0.333985 l 0.002,0.002 v 0.002 c 0.225751,0.259224 0.301548,0.612649 0.201172,0.941406 v 0.002 C 61.032113,27.021924 57.71875,38.054688 57.71875,38.054688 l -0.002,0.0059 -0.002,0.0059 c -0.38294,1.343219 -1.077581,3.783349 -1.914063,6.216797 -0.836482,2.433448 -1.848371,4.884003 -2.697265,6.082031 l -0.0059,0.0078 -0.0059,0.0078 c -1.735931,2.58162 -4.201952,4.586622 -7.083985,5.757813 -0.0014,5.53e-4 -0.0025,0.0014 -0.0039,0.002 -1.895382,0.7372 -3.909642,1.119577 -5.943359,1.128906 -1.202476,6.02e-4 -2.400878,-0.139972 -3.570313,-0.419922 h -0.002 c -0.155169,-0.03711 -0.162968,-0.07115 -0.185547,-0.113281 -0.02258,-0.04214 -0.0368,-0.128244 -0.01563,-0.216797 0.02118,-0.08855 0.07408,-0.158184 0.113282,-0.185547 0.0392,-0.02736 0.05967,-0.05273 0.214843,-0.01563 h 0.0039 l 0.0039,0.002 c 3.066915,0.706119 6.275239,0.463779 9.201172,-0.695312 l 0.0059,-0.002 0.0039,-0.002 c 2.779383,-1.139766 5.156317,-3.08259 6.828125,-5.578125 0.987833,-1.397001 1.890203,-3.779913 2.703125,-6.177735 0.812238,-2.395801 1.487964,-4.764924 1.822266,-5.9375 l 0.0039,-0.01172 c 0.0051,-0.01705 3.049402,-10.163107 4.232422,-14.076172 l 0.378906,-1.248047 -1.291015,0.195312 c -3.931805,0.598957 -14.455161,2.21469 -19.726563,3.134766 -3.247906,0.566816 -5.218322,1.093843 -6.630859,1.671875 -1.412537,0.578032 -2.249695,1.217499 -3.101563,1.875 -2.620457,2.022771 -4.726251,5.319465 -5.410156,7.669922 -0.868933,2.967105 -0.838356,6.125117 0.08984,9.074219 l 0.0078,0.02148 0.0078,0.01953 c 0.705821,1.882356 1.724581,3.633157 3.013672,5.175782 l 1.177734,1.410156 0.269531,-1.81836 c 0.488567,-3.299896 2.368761,-6.360076 5.566407,-8.904296 2.353889,-1.873507 5.639128,-2.912208 9.257812,-2.84961 h 0.0039 l 0.09766,0.002 0.04492,-0.0039 c 0.214425,-0.02098 0.341405,0.130349 0.291015,0.337891 -0.04328,0.152856 -0.176108,0.242733 -0.333984,0.21875 l -0.05469,-0.0078 h -0.05273 c -3.443787,-0.06527 -6.604649,0.888973 -8.916016,2.728516 -2.212968,1.761166 -4.999377,4.77776 -5.43164,9.078125 -0.08175,0.812806 -0.122262,1.526256 -0.15625,2.142578 -0.01761,0.319815 -0.100955,1.461633 -0.103516,1.486328 l -0.002,0.0078 v 0.0098 c -0.130557,1.57693 -0.756686,3.072338 -1.789063,4.271484 l -0.0039,0.002 -0.002,0.0039 c -1.405231,1.66579 -3.307951,2.835117 -5.427734,3.339844 -0.137551,0.02528 -0.168489,0.004 -0.205078,-0.02344 -0.03831,-0.0287 -0.08724,-0.100482 -0.105469,-0.189453 -0.01822,-0.08897 -5.06e-4,-0.173396 0.02344,-0.214844 0.02394,-0.04145 0.03183,-0.07521 0.1875,-0.107422 l 0.01563,-0.002 0.01563,-0.0039 c 1.956714,-0.483738 3.71551,-1.564853 5.03125,-3.091797 l 0.0098,-0.01367 0.01172,-0.01172 c 1.244781,-1.572295 1.732846,-2.859069 1.734375,-4.480468 v -0.05078 l -0.0059,-0.04883 c -0.111393,-0.928565 -0.53777,-1.790166 -1.208984,-2.441406 l 0.04297,0.04297 c -1.527913,-1.719111 -2.72256,-3.708143 -3.525391,-5.863281 -0.961567,-3.053609 -0.997503,-6.323302 -0.09961,-9.396485 v -0.002 c 0.644828,-2.216737 2.855635,-5.831031 5.599609,-7.949219 2.058898,-1.5893 3.400144,-2.505264 9.972656,-3.652343 5.529012,-0.965 16.948287,-2.711025 20.3125,-3.222657 z M 45.056641,37.621094 c -0.0056,-9.5e-5 -0.01006,0.004 -0.01563,0.0039 l 0.06641,-0.0039 H 45.0625 Z" />
  <path d="M 42.51965,0 A 42.51968,42.51968 0 1 0 85.03936,42.51973 42.51969,42.51969 0 0 0 42.51965,0 Z m 0,80.78741 a 38.26773,38.26773 0 1 1 38.2677,-38.26768 38.311,38.311 0 0 1 -38.2677,38.26769 z" id="leaf-circle_path1412" />
</symbol><symbol viewBox="690 15 60 90" id="logo">
    <g id="logo_innogy_logo_M-S_p_4C_my" stroke="none" stroke-width="1" fill="none" fill-rule="evenodd" transform="translate(690.000000, 15.000000)">
        <g id="logo_Group-3" transform="translate(0.000000, 73.000000)">
            <path d="M1.20739437,13.5598554 C1.7706338,13.5598554 2.12725352,13.2139157 2.12725352,12.6318193 L2.12725352,5.29642169 C2.12725352,4.71391566 1.7706338,4.36818072 1.20739437,4.36818072 C0.64415493,4.36818072 0.268732394,4.71391566 0.268732394,5.29642169 L0.268732394,12.6318193 C0.268732394,13.2139157 0.64415493,13.5598554 1.20739437,13.5598554 M1.20739437,2.37733735 C1.87584507,2.37733735 2.39598592,1.88351807 2.39598592,1.20679518 C2.39598592,0.548506024 1.87584507,0.0544819277 1.20739437,0.0544819277 C0.520140845,0.0544819277 0,0.548506024 0,1.20679518 C0,1.88351807 0.520140845,2.37733735 1.20739437,2.37733735 M31.565493,13.7964217 C34.5130986,13.7964217 36.8410563,11.7945181 36.8410563,9.00959036 C36.8410563,6.15195181 34.5130986,4.14984337 31.565493,4.14984337 C28.5240845,4.14984337 26.2335211,6.15195181 26.2335211,9.00959036 C26.2335211,11.7945181 28.5240845,13.7964217 31.565493,13.7964217 M31.5842958,12.2313976 C29.4441549,12.2313976 27.9984507,10.8662771 27.9984507,9.00959036 C27.9984507,7.06216867 29.4441549,5.67881928 31.5842958,5.67881928 C33.6682394,5.67881928 35.076338,7.06216867 35.076338,9.00959036 C35.076338,10.8662771 33.6682394,12.2313976 31.5842958,12.2313976 M42.9802817,17 C46.4535211,17 47.9744366,15.0888313 47.9744366,11.7578554 L47.9744366,4.85954217 C47.9744366,4.55046988 47.8052113,4.40484337 47.4864085,4.40484337 L47.2983803,4.40484337 C46.9041549,4.40484337 46.3599296,4.62318072 46.2659155,5.27839759 C45.4208451,4.58651807 44.2945775,4.14984337 43.0552817,4.14984337 C40.1640845,4.14984337 38.1365493,6.26112048 38.1365493,8.90042169 C38.1365493,11.4668072 40.1078873,13.4689157 43.0552817,13.4689157 C44.2383803,13.4689157 45.3648592,13.0867229 46.209507,12.4497349 C46.209507,14.2333012 45.3082394,15.4345663 43.0552817,15.4345663 C41.5721831,15.4345663 40.5959155,14.7611205 40.1640845,14.3606988 C40.0328873,14.2515301 39.9576761,14.1968434 39.788662,14.1968434 C39.4506338,14.1968434 38.9814085,14.5972651 38.9814085,15.2162289 C38.9814085,16.0350964 40.7649296,17 42.9802817,17 M43.2619014,11.9399398 C41.253169,11.9399398 39.9200704,10.7022169 39.9200704,8.88219277 C39.9200704,7.02571084 41.253169,5.67881928 43.2619014,5.67881928 C44.2569718,5.67881928 45.3272535,6.11549398 45.9280986,6.78893976 C46.1530986,7.02571084 46.2659155,7.26227711 46.2659155,7.58998795 L46.2659155,10.1381446 C46.2659155,10.4476265 46.115493,10.7206506 45.8902817,10.975241 C45.3082394,11.5942048 44.2383803,11.9399398 43.2619014,11.9399398 M9.58077465,4.14984337 C7.94746479,4.14984337 6.65197183,4.71391566 5.76971831,5.38756627 C5.73190141,4.69609639 5.46908451,4.40484337 4.73704225,4.40484337 L4.45542254,4.40484337 C4.17380282,4.40484337 4.02359155,4.51380723 4.02359155,4.84151807 L4.02359155,12.8864096 C4.02359155,13.359747 4.38021127,13.5598554 4.90605634,13.5598554 C5.43169014,13.5598554 5.76971831,13.359747 5.76971831,12.8864096 L5.76971831,7.73540964 C5.76971831,7.35321687 5.97612676,7.00768675 6.27633803,6.77071084 C6.93359155,6.26112048 7.92866197,5.76975904 9.14894366,5.76975904 C10.9512676,5.76975904 11.8525352,6.73466265 11.8525352,8.40885542 L11.8525352,12.8864096 C11.8525352,13.359747 12.2091549,13.5598554 12.7347887,13.5598554 C13.2604225,13.5598554 13.5984507,13.359747 13.5984507,12.8864096 L13.5984507,8.35437349 C13.5984507,5.49673494 12.1715493,4.14984337 9.58077465,4.14984337 M20.8453521,4.14984337 C19.2120423,4.14984337 17.9165493,4.71391566 17.0342958,5.38756627 C16.9966901,4.69609639 16.7338732,4.40484337 16.0016197,4.40484337 L15.72,4.40484337 C15.4383803,4.40484337 15.288169,4.51380723 15.288169,4.84151807 L15.288169,12.8864096 C15.288169,13.359747 15.6447887,13.5598554 16.1706338,13.5598554 C16.6962676,13.5598554 17.0342958,13.359747 17.0342958,12.8864096 L17.0342958,7.73540964 C17.0342958,7.35321687 17.2407042,7.00768675 17.5411268,6.77071084 C18.198169,6.26112048 19.1932394,5.76975904 20.4135211,5.76975904 C22.2158451,5.76975904 23.1171127,6.73466265 23.1171127,8.40885542 L23.1171127,12.8864096 C23.1171127,13.359747 23.4737324,13.5598554 23.9993662,13.5598554 C24.525,13.5598554 24.8630282,13.359747 24.8630282,12.8864096 L24.8630282,8.35437349 C24.8630282,5.49673494 23.4361268,4.14984337 20.8453521,4.14984337 M59.1261972,4.45912048 C58.4691549,4.45912048 58.0373239,4.65943373 57.8123239,5.13277108 L54.8269014,11.5397229 L51.7478873,5.13277108 C51.5224648,4.65943373 50.996831,4.45912048 50.3397887,4.45912048 C49.701338,4.45912048 49.4011268,4.69609639 49.6451408,5.1690241 L53.6440141,13.068494 C53.7380282,13.2686024 53.7380282,13.5053735 53.6254225,13.687253 C53.1371831,14.5790361 52.5739437,15.3436265 51.5976761,15.3436265 C51.2222535,15.3436265 50.8846479,15.1797711 50.6778169,15.0161205 C50.5276056,14.906747 50.4711972,14.8520602 50.3021831,14.8520602 C49.9643662,14.8520602 49.4949296,15.2709157 49.4949296,15.834988 C49.4949296,16.3083253 50.3021831,17 51.5976761,17 C53.5692254,17 54.7142958,15.3071687 55.7279577,13.2868313 L59.8020423,5.1690241 C60.0462676,4.69609639 59.7456338,4.45912048 59.1261972,4.45912048" id="logo_Fill-1" fill="#000000" />
        </g>
        <path d="M30.5,28.8999571 C27.9399594,28.8999571 25.857083,31.030706 25.857083,33.6500643 L25.857083,58.3501501 C25.857083,60.969294 27.9399594,63.1002574 30.5,63.1002574 C33.0600406,63.1002574 35.142917,60.969294 35.142917,58.3501501 L35.142917,33.6500643 C35.142917,31.030706 33.0600406,28.8999571 30.5,28.8999571 M30.5,65 C26.9158173,65 24,62.0170802 24,58.3501501 L24,33.6500643 C24,29.9831343 26.9158173,27 30.5,27 C34.0841827,27 37,29.9831343 37,33.6500643 L37,58.3501501 C37,62.0170802 34.0841827,65 30.5,65" id="logo_Fill-4" fill="#000000" />
        <path d="M29.5,1.87494708 C26.3982305,1.87494708 23.8749471,4.39823046 23.8749471,7.5 C23.8749471,10.6015579 26.3982305,13.1250529 29.5,13.1250529 C32.6017695,13.1250529 35.1250529,10.6015579 35.1250529,7.5 C35.1250529,4.39823046 32.6017695,1.87494708 29.5,1.87494708 M29.5,15 C25.3644484,15 22,11.6355516 22,7.5 C22,3.3644484 25.3644484,0 29.5,0 C33.6357633,0 37,3.3644484 37,7.5 C37,11.6355516 33.6357633,15 29.5,15" id="logo_upper-circle" fill="#000000" />
        <path d="M34.7048571,19.3007052 C35.5929024,19.0078622 36.296146,18.8463371 36.6854647,18.8463371 C36.7166622,18.8463371 36.7452599,18.847386 36.7710412,18.8494837 C36.8925814,18.8587137 36.9822742,18.9235335 37.0308037,19.0370207 C37.0713171,19.1303696 37.0628678,19.2449056 37.0485689,19.3252486 C36.9198792,20.0483358 36.0823132,21.8171409 31.9232971,25.5355754 L31.2124708,26.1726557 C31.9033654,26.349704 32.5507134,26.6320583 33.1356664,27 L33.2346751,26.9102172 C38.960932,21.7904998 38.989963,19.8203127 38.9997122,19.1729535 C39.0092448,18.5358732 38.7817631,17.9797652 38.3428317,17.5639954 C37.9409473,17.1832575 37.4066902,16.9982378 36.7095128,16.9982378 C35.1060915,16.9982378 32.7179666,17.9787164 29.5189235,19.3638468 C28.9120889,19.6271118 28.3063375,19.9136616 27.7207345,20.1911912 C26.602391,20.720658 25.5462258,21.2205468 24.5819199,21.5127604 C23.6366791,21.7988907 22.9663662,21.9320965 22.4721893,21.9320965 C22.225859,21.9320965 22.0287082,21.8995817 21.869471,21.8316153 C21.3928426,21.6300235 21.3373804,21.0332196 21.3163654,20.8085528 L21.312899,20.7724719 C21.2706524,20.3674004 21.367278,19.917018 21.4444051,19.6136864 C21.6207576,18.9145133 21.8575553,18.3340717 22.1872955,17.7303453 C22.5683815,17.0320113 23.2263454,16.0811107 23.9133402,15.1354545 C23.9133402,15.1354545 23.9727021,15.0605655 23.9133402,15.0194501 C23.8249473,14.9581964 23.7361211,15.0611949 23.7361211,15.0611949 C23.7361211,15.0611949 23.1559344,15.6523349 22.5906964,16.3085045 C22.0991192,16.8792966 21.5475302,17.5958808 21.2494208,18.0508783 C19.7681897,20.313279 19.603103,21.9788758 20.7589268,23.0023578 C21.2028412,23.3954722 21.7958102,23.5869949 22.5720646,23.5869949 L22.5727145,23.5869949 C24.5019763,23.5869949 27.3223165,22.3652775 30.3083934,21.0724471 C31.9094315,20.3791477 33.4216434,19.7242367 34.7048571,19.3007052" id="logo_Fill-6" fill="#F6BC25" />
    </g>
</symbol><symbol viewBox="0 0 85.04 85.04" id="number-one-circle">
  <!-- ##################################################################################################### -->
  <!-- For positive version please edit color rgba(0,0,0,1); -->
  <!-- or -->
  <!-- For negative version please edit color rgba(255,255,255,1); -->
  <!-- ##################################################################################################### -->
  <path d="M 42.519531 0 C 25.321911 -6.4309416e-005 9.8172294 10.359815 3.2363281 26.248047 C -3.3445598 42.136246 0.29457748 60.423483 12.455078 72.583984 C 24.615579 84.744485 42.902817 88.383622 58.791016 81.802734 C 74.679248 75.221833 85.039127 59.717151 85.039062 42.519531 C 85.03898 19.036677 66.002385 8.2289876e-005 42.519531 0 z M 42.519531 4.2519531 C 57.997394 4.2518916 71.952185 13.575588 77.875 27.875 C 83.797803 42.174384 80.52258 58.63367 69.578125 69.578125 C 58.63367 80.52258 42.174384 83.797803 27.875 77.875 C 13.575588 71.952185 4.2518916 57.997394 4.2519531 42.519531 C 4.275921 21.394867 21.394867 4.275921 42.519531 4.2519531 z M 42.042969 28.144531 C 41.522135 29.85026 40.591145 31.360677 39.25 32.675781 C 37.908854 33.977865 36.613281 34.882813 35.363281 35.390625 L 35.363281 40.371094 C 37.563802 39.485677 39.503906 38.098958 41.183594 36.210938 L 41.183594 56.894531 L 45.675781 56.894531 L 45.675781 28.144531 L 42.042969 28.144531 z " />
</symbol><symbol viewBox="0 0 85.04 85.04" id="number-two-circle">
  <!-- ##################################################################################################### -->
  <!-- For positive version please edit color rgba(0,0,0,1); -->
  <!-- or -->
  <!-- For negative version please edit color rgba(255,255,255,1); -->
  <!-- ##################################################################################################### -->
  <path d="M 42.519531 0 C 25.321911 -6.4309416e-005 9.8172294 10.359815 3.2363281 26.248047 C -3.3445598 42.136246 0.29457773 60.423483 12.455078 72.583984 C 24.615579 84.744485 42.902817 88.383622 58.791016 81.802734 C 74.679248 75.221833 85.039127 59.717151 85.039062 42.519531 C 85.03898 19.036677 66.002385 8.2289876e-005 42.519531 0 z M 42.519531 4.2519531 C 57.997394 4.2518916 71.952185 13.575588 77.875 27.875 C 83.797803 42.174384 80.52258 58.63367 69.578125 69.578125 C 58.63367 80.52258 42.174384 83.797803 27.875 77.875 C 13.575588 71.952185 4.2518916 57.997394 4.2519531 42.519531 C 4.275921 21.394867 21.394867 4.275921 42.519531 4.2519531 z M 41.925781 28.144531 C 39.686198 28.144531 37.889323 28.828125 36.535156 30.195312 C 35.19401 31.5625 34.386719 33.704427 34.113281 36.621094 L 38.585938 37.167969 C 38.742188 34.186198 39.816406 32.695312 41.808594 32.695312 C 42.720052 32.695312 43.455729 33.014323 44.015625 33.652344 C 44.57552 34.290364 44.855469 35.234375 44.855469 36.484375 C 44.855469 37.65625 44.516927 38.821615 43.839844 39.980469 C 43.384115 40.774739 42.166667 42.298177 40.1875 44.550781 C 37.6875 47.376302 36.001302 49.661459 35.128906 51.40625 C 34.269531 53.138021 33.755208 54.967448 33.585938 56.894531 L 49.367188 56.894531 L 49.367188 51.796875 L 40.421875 51.796875 C 40.65625 51.302084 40.96224 50.794269 41.339844 50.273438 C 41.730469 49.752603 42.648437 48.678385 44.09375 47.050781 C 45.643229 45.31901 46.750002 43.899739 47.414062 42.792969 C 48.078125 41.673177 48.566406 40.566406 48.878906 39.472656 C 49.204427 38.365885 49.367186 37.226562 49.367188 36.054688 C 49.367188 33.984375 48.742188 32.148438 47.492188 30.546875 C 46.242188 28.945313 44.386719 28.144531 41.925781 28.144531 z " />
</symbol><symbol viewBox="0 0 418 418" id="pdf">
	<path d="M368.6,292.5c5.7,0,10.4-4.7,10.4-10.5V13.9C379,6.2,372.8,0,365.1,0H115.3c-7.7,0-13.9,6.2-13.9,13.9v48.8H52.8
		c-7.7,0-13.9,6.2-13.9,13.9v327.5c0,7.7,6.2,13.9,13.9,13.9h249.9c7.7,0,13.9-6.2,13.9-13.9v-48.8h52.1c5.7,0,10.4-4.7,10.4-10.5
		s-4.7-10.5-10.4-10.5h-52.1V76.6c0-7.7-6.2-13.9-13.9-13.9H122.2V20.9h236v261.2C358.2,287.8,362.9,292.5,368.6,292.5z M295.7,83.6
		v313.5h-236V83.6H295.7z" />
	<path d="M229.4,220.6h7.2v49.3c0,2.2,1.2,4,5.9,4h3c4.6,0,6-1.8,6-4v-49.3h16.1c1.8,0,3.4-1,3.4-4.4v-1.8c0-3.4-1.6-4.4-3.4-4.4
		h-16.1v-1.8c0-11,5.2-15.4,15.5-15.4h2.7c1.8,0,3.3-1.1,3.3-4.4v-3c0-3.3-1.5-4.4-3.3-4.4h-5.2c-18.3,0-27.9,10.2-27.9,27.1v1.8
		h-7.2c-1.8,0-3.3,1-3.3,4.4v1.8C226.1,219.5,227.6,220.6,229.4,220.6z" />
	<path d="M89.6,298.4h3.1c4.5,0,5.9-1.8,5.9-4v-24.8c4.2,3.7,10.1,5.6,17.8,5.6c18.8,0,28.3-10.1,28.3-31.9v-2.9
		c0-22.1-9.8-31.7-30.6-31.7s-30.4,10.1-30.4,31.9v53.8C83.7,296.6,85.1,298.4,89.6,298.4z M98.6,240.6c0-15.7,4.1-21,15.7-21
		c11.4,0,15.8,5.3,15.8,21v2.7c0,15.7-4.4,21-15.8,21c-11.4,0-15.7-5.5-15.7-21V240.6z" />
	<path d="M186.3,275.3c20.6,0,30.2-10.1,30.2-31.9v-58.3c0-2-1.4-4-5.9-4h-2.9c-4.8,0-6.1,1.9-6.1,4v29.3c-4.2-3.7-9.9-5.6-17.7-5.6
		c-19.2,0-28.7,10.1-28.7,31.7v2.9C155.2,265.6,165,275.3,186.3,275.3z M170.2,240.6c0-15.7,4.4-21,15.9-21c11.4,0,15.5,5.3,15.5,21
		v2.7c0,15.5-4.1,21-15.5,21c-11.6,0-15.9-5.3-15.9-21V240.6z" />
</symbol><symbol viewBox="0 0 85.04 85.04" preserveAspectRatio="none" id="phone">
	<path d="M84.41541,65.29254L66.18359,47.08362c-1.66125-1.65454-4.35974-1.65552-6.01709,0.00098L48.15387,59.08649
		c-3.17108-0.82141-9.83472-3.50934-14.69934-8.37335c-5.54242-5.54291-8.05872-12.06982-8.88007-14.61072l12.2392-12.2168
		c1.65839-1.65552,1.66132-4.35223,0.00684-6.01221L20.24017,1.25116c-0.80328-0.80579-1.87268-1.25018-3.01099-1.25165
		c-0.00098,0-0.00244,0-0.00391,0c-1.1358,0-2.20422,0.44244-3.00848,1.2453L1.74512,13.69745
		c-0.60748,0.60559-1.01276,1.36694-1.17145,2.20056c-0.8028,4.19305-3.68781,26.29175,18.38708,49.57721
		C34.52203,81.88995,49.948,85.03888,59.48383,85.03888c3.55402,0,6.29053-0.43756,7.90979-0.78918
		c0.79498-0.17291,1.52063-0.56946,2.09686-1.14667l5.89105-5.88379c0.83112-0.82922,0.83209-2.17609,0.00195-3.00629
		c-0.82916-0.83124-2.17499-0.83319-3.0061-0.00195l-5.88617,5.88275c-5.41644,1.17401-24.61267,3.37555-44.44427-17.5448
		C1.40039,40.77014,4.01581,20.53302,4.74829,16.70819l12.4809-12.4541l16.58038,16.62177L21.56989,33.09314
		c-1.13684,1.13544-1.53674,2.78705-1.04456,4.30975c1.14221,3.53033,3.94952,10.34393,9.92218,16.3175
		c6.78613,6.7843,15.65155,9.22607,16.64087,9.48297c1.44836,0.37506,3.0061-0.05273,4.06573-1.11053L63.17944,50.0929
		l18.23187,18.20795c0.83112,0.83118,2.17688,0.82922,3.00604-0.00195C85.2475,67.46869,85.24652,66.12183,84.41541,65.29254z" />
</symbol><symbol viewBox="0 0 85.04 85.04" id="photo-circle">
  <path d="M42.54349-.03873A42.51968,42.51968,0,1,0,85.0632,42.481,42.51969,42.51969,0,0,0,42.54349-.03873Zm0,80.78741A38.26773,38.26773,0,1,1,80.81119,42.481,38.311,38.311,0,0,1,42.54349,80.74869Z" />
    <path d="M60.94488,28.34646H55.27559A7.05965,7.05965,0,0,0,48.189,21.25984H36.85039a7.05487,7.05487,0,0,0-7.08661,7.08661l-5.6794.04756a4.22223,4.22223,0,0,0-4.24316,4.20441V55.27559a4.24208,4.24208,0,0,0,4.25327,4.25252H60.94488a4.24742,4.24742,0,0,0,4.25956-4.25252V32.59843A4.27688,4.27688,0,0,0,60.94488,28.34646Zm0.0076,26.92689H24.09317l0.00132-22.67492h7.79528a2.12608,2.12608,0,0,0,2.126-2.126v-2.126a2.8022,2.8022,0,0,1,2.83465-2.83465L48.189,25.50494a2.82669,2.82669,0,0,1,2.83465,2.84151v2.126a2.12584,2.12584,0,0,0,2.126,2.126h7.79528Z" />
    <path d="M42.51971,35.433a8.50394,8.50394,0,1,0,8.50391,8.504A8.504,8.504,0,0,0,42.51971,35.433ZM42.51965,48.189a4.252,4.252,0,1,1,4.252-4.252A4.25672,4.25672,0,0,1,42.51965,48.189Z" />
    <circle cx="54.56694" cy="36.8532" r="2.12598" />
</symbol><symbol viewBox="0 0 44 44" id="plus-circle">
<path d="M36,8
	c7.7,7.7,7.7,20.3,0,28s-20.3,7.7-28,0S0.3,15.7,8,8c0,0,0,0,0,0C15.7,0.3,28.3,0.3,36,8 M37.6,6.4C29-2.1,15-2.1,6.4,6.4
	s-8.6,22.5,0,31.1s22.5,8.6,31.1,0c0,0,0,0,0,0C46.1,29,46.1,15,37.6,6.4C37.6,6.4,37.6,6.4,37.6,6.4L37.6,6.4z M23.1,30.8l0-7.7
	h7.7c0.6,0,1.1-0.5,1.1-1.1c0,0,0,0,0,0c0-0.6-0.5-1.1-1.1-1.1l-7.7,0l0-7.7c0-0.6-0.5-1.1-1.1-1.1c-0.6,0-1.1,0.5-1.1,1.1l0,7.7
	l-7.7,0c-0.6,0-1.1,0.5-1.1,1.1c0,0.6,0.5,1.1,1.1,1.1c0,0,0,0,0,0l7.7,0l0,7.7c0,0.6,0.5,1.1,1.1,1.1S23.1,31.4,23.1,30.8
	C23.1,30.8,23.1,30.8,23.1,30.8z" />
</symbol><symbol viewBox="0 0 52 52" id="question-mark">
<path d="M26,0C11.663,0,0,11.663,0,26s11.663,26,26,26s26-11.663,26-26S40.337,0,26,0z M28,41c0,1.104-0.896,2-2,2s-2-0.896-2-2v-2
	c0-1.104,0.896-2,2-2s2,0.896,2,2V41z M30.874,24.567C29.102,25.711,28,27.853,28,30.158V33c0,1.104-0.896,2-2,2s-2-0.896-2-2
	v-2.842c0-3.706,1.76-7.053,4.706-8.952c1.46-0.942,2.317-2.541,2.293-4.277c-0.036-2.635-2.293-4.892-4.928-4.928
	c-1.366-0.067-2.622,0.492-3.582,1.438C21.529,14.387,21,15.651,21,17c0,1.104-0.896,2-2,2s-2-0.896-2-2
	c0-2.428,0.952-4.703,2.681-6.408C21.378,8.918,23.617,8,25.998,8c0.043,0,0.086,0.001,0.13,0.001
	c4.824,0.067,8.804,4.047,8.871,8.871C35.043,19.996,33.501,22.873,30.874,24.567z" />
</symbol><symbol viewBox="0 0 85 85" id="refresh">
<path d="M81.6,25.8c-2.6-6-6.5-11.3-11.4-15.6l3.2-0.4c1.2-0.1,2-1.2,1.9-2.4c-0.1-1.2-1.2-2-2.4-1.9l-8.5,1c-1.2,0.1-2,1.2-1.9,2.4
	c0,0,0,0,0,0l1,8.4c0.1,1.2,1.2,2,2.4,1.9c1.2-0.1,2-1.2,1.9-2.4l-0.4-3.5c16,13.7,17.9,37.9,4.2,53.9s-37.9,17.9-53.9,4.2
	s-17.9-37.9-4.2-53.9c9.6-11.2,24.8-15.9,39.1-12c1.1,0.3,2.3-0.4,2.6-1.5c0.3-1.1-0.4-2.3-1.5-2.6C44.5-1,34.6-0.4,25.8,3.4
	C4.2,12.7-5.8,37.7,3.4,59.3s34.2,31.6,55.8,22.4C80.8,72.4,90.8,47.4,81.6,25.8z" />
</symbol><symbol viewBox="0 0 70 47" id="voucher-100">
  <path d="M53.319,17.989 L52.511,17.989 C52.284,17.989 52.136,17.898 51.977,17.726 L51.271,16.969 C51.010,16.694 51.134,16.431 51.510,16.431 L51.681,16.431 C52.079,16.431 52.193,16.522 52.534,16.889 L52.921,17.325 L53.297,16.889 C53.626,16.522 53.763,16.431 54.162,16.431 L54.355,16.431 C54.719,16.431 54.822,16.694 54.560,16.969 L53.866,17.726 C53.707,17.898 53.547,17.989 53.319,17.989 ZM53.286,23.077 C53.650,23.077 53.957,23.020 54.253,22.916 L54.515,22.825 C54.719,22.756 54.822,22.859 54.879,23.123 L54.958,23.467 C55.016,23.719 54.981,23.856 54.765,23.936 L54.446,24.062 C54.014,24.234 53.491,24.338 52.933,24.338 C51.419,24.338 50.372,23.650 50.372,21.622 L50.372,21.404 C50.372,19.376 51.419,18.688 52.933,18.688 C53.491,18.688 54.014,18.791 54.446,18.963 L54.765,19.089 C54.981,19.158 55.016,19.307 54.958,19.559 L54.879,19.903 C54.822,20.166 54.719,20.270 54.515,20.201 L54.253,20.109 C53.957,20.006 53.650,19.949 53.286,19.949 C52.432,19.949 51.931,20.292 51.931,21.404 L51.931,21.622 C51.931,22.733 52.432,23.077 53.286,23.077 ZM49.606,24.223 L49.038,24.223 C48.491,24.223 48.184,24.016 48.059,23.765 L45.954,20.602 C45.851,20.441 45.851,20.258 45.954,20.086 L48.070,16.889 C48.184,16.637 48.491,16.431 49.038,16.431 L49.595,16.431 C50.142,16.431 50.130,16.648 49.983,16.889 L47.502,20.327 L49.994,23.765 C50.142,24.016 50.153,24.223 49.606,24.223 ZM44.861,16.431 C45.419,16.431 45.556,16.637 45.556,16.878 L45.556,23.776 C45.556,24.016 45.419,24.223 44.861,24.223 L44.543,24.223 C43.985,24.223 43.860,24.016 43.860,23.776 L43.860,16.878 C43.860,16.637 43.985,16.431 44.543,16.431 L44.861,16.431 ZM42.298,24.084 C42.298,28.706 40.989,30.968 37.376,30.968 C33.665,30.968 32.454,28.628 32.454,24.124 C32.454,19.502 33.841,17.201 37.415,17.201 C41.146,17.201 42.298,19.561 42.298,24.084 ZM35.130,24.104 C35.130,27.545 35.520,28.804 37.376,28.804 C39.192,28.804 39.622,27.545 39.622,24.104 C39.622,20.662 39.232,19.364 37.376,19.364 C35.560,19.364 35.130,20.662 35.130,24.104 ZM30.581,24.084 C30.581,28.706 29.272,30.968 25.659,30.968 C21.948,30.968 20.737,28.628 20.737,24.124 C20.737,19.502 22.124,17.201 25.698,17.201 C29.429,17.201 30.581,19.561 30.581,24.084 ZM23.413,24.104 C23.413,27.545 23.803,28.804 25.659,28.804 C27.475,28.804 27.905,27.545 27.905,24.104 C27.905,20.662 27.514,19.364 25.659,19.364 C23.842,19.364 23.413,20.662 23.413,24.104 ZM17.281,17.398 L17.886,17.398 C18.570,17.398 18.745,17.692 18.745,18.027 L18.745,30.024 C18.745,30.437 18.531,30.771 17.613,30.771 L17.046,30.771 C16.129,30.771 15.913,30.437 15.913,30.024 L15.913,20.112 L13.570,21.311 C13.296,21.449 12.867,21.468 12.632,20.820 L12.535,20.564 C12.281,19.895 12.417,19.699 12.691,19.541 L15.777,17.771 C16.285,17.496 16.675,17.398 17.281,17.398 ZM69.148,32.808 L57.892,45.789 C57.231,46.559 56.268,47.003 55.253,47.003 L12.247,47.003 C11.280,47.003 10.497,46.214 10.497,45.241 C10.497,44.268 11.280,43.479 12.247,43.479 L55.253,43.479 L66.507,30.495 L66.501,16.585 L55.253,3.536 L3.499,3.536 L3.499,45.214 C3.499,46.186 2.716,46.976 1.750,46.976 C0.783,46.976 -0.000,46.186 -0.000,45.214 L-0.000,3.536 C-0.000,1.592 1.569,0.012 3.499,0.012 L55.253,0.012 C56.268,0.012 57.231,0.455 57.897,1.227 L69.144,14.275 C69.697,14.918 70.000,15.738 70.000,16.585 L70.000,30.503 C70.000,31.349 69.697,32.168 69.148,32.808 Z" />
</symbol></defs></svg>