<?xml version="1.0" encoding="utf-8"?>
<svg version="1.1" xmlns="http://www.w3.org/2000/svg" xmlns:xlink="http://www.w3.org/1999/xlink" x="0px" y="0px"
	 viewBox="0 0 85.04 85.04" height="200" wight="200" enable-background="new 0 0 85.04 85.04" xml:space="preserve" preserveAspectRatio="none">
<path d="M42.51968,4.25195c21.10089,0,38.26773,17.16683,38.26773,38.26773S63.62058,80.78741,42.51968,80.78741
	S4.25195,63.62058,4.25195,42.51968S21.41879,4.25195,42.51968,4.25195 M42.51968,0C19.03671,0,0,19.03671,0,42.51968
	s19.03671,42.51968,42.51969,42.51968s42.51968-19.03671,42.51968-42.51968S66.00266,0,42.51968,0L42.51968,0z M39.06647,56.06819
	l12.04208-12.06161c0.39985-0.4,0.62373-0.94198,0.62373-1.50746s-0.22388-1.10746-0.62373-1.50746l-12.002-12.02098
	c-0.83197-0.83231-2.17916-0.83231-3.01015,0c-0.831,0.8328-0.831,2.18261,0,3.01491l10.49741,10.51352L36.05632,53.05426
	c-0.83099,0.83231-0.83099,2.18163,0,3.01394c0.4155,0.41616,0.96053,0.62472,1.50508,0.62472
	C38.10594,56.69291,38.65097,56.48435,39.06647,56.06819z"/>
</svg>
