<?xml version="1.0" encoding="UTF-8" standalone="no"?>
<svg
   xmlns:dc="http://purl.org/dc/elements/1.1/"
   xmlns:cc="http://creativecommons.org/ns#"
   xmlns:rdf="http://www.w3.org/1999/02/22-rdf-syntax-ns#"
   xmlns:svg="http://www.w3.org/2000/svg"
   xmlns="http://www.w3.org/2000/svg"
   xml:space="preserve"
   style="enable-background:new 0 0 200 200;"
   viewBox="0 0 200 200"
   y="0px"
   x="0px"
   id="Layer_1"
   version="1.1">
	<path
   d="M 101.18164 14.019531 C 97.148523 13.991199 93.048828 14.246094 88.900391 14.800781 C 47.300391 20.300781 15.999609 56.5 16.099609 98.5 C 16.099609 117.9 22.299219 135.80039 33.699219 149.90039 L 16.800781 176.30078 C 15.900781 177.60078 15.899219 179.39922 16.699219 180.69922 C 16.699219 180.79922 16.800391 180.90039 16.900391 180.90039 C 17.900391 182.30039 19.499219 182.99922 21.199219 182.69922 L 63.199219 174.40039 C 63.499219 174.30039 63.799609 174.4 64.099609 174.5 C 76.199609 180.3 89.799217 183.39922 104.19922 182.69922 C 117.39922 182.09922 136.3 177.09922 149.5 167.19922 C 151.2 165.89922 151.69922 163.70078 150.69922 161.80078 C 149.49922 159.50078 146.50039 158.90039 144.40039 160.40039 C 131.50039 170.10039 115.60039 174.20078 99.900391 174.30078 C 87.700391 174.40078 76.299219 171.29961 66.199219 166.09961 C 65.399219 165.69961 64.4 165.49922 63.5 165.69922 L 29.300781 172.5 L 43 151 C 43.7 149.9 43.599219 148.59961 42.699219 147.59961 C 29.999219 132.79961 23.000781 112.99961 24.800781 91.599609 C 28.000781 54.799609 56.699609 25.999219 93.599609 22.699219 C 140.79961 18.499219 180.29922 57.899607 176.19922 105.09961 C 175.19922 116.79961 170.80078 132.00078 161.80078 143.30078 C 160.40078 145.10078 160.60039 147.59961 162.40039 149.09961 C 164.20039 150.59961 167.00039 150.4 168.40039 148.5 C 179.20039 135 184.20039 117 184.90039 102 C 187.0207 53.970312 148.77245 14.353846 101.18164 14.019531 z M 99.599609 51.099609 C 96.199609 51.099609 93.800781 53.299609 93.800781 56.599609 C 93.800781 60.199609 96.199609 62.400391 99.599609 62.400391 C 103.09961 62.400391 105.40039 60.199609 105.40039 56.599609 C 105.30039 53.299609 102.99961 51.099609 99.599609 51.099609 z M 98.599609 75.400391 C 95.799609 75.400391 94.900391 76.6 94.900391 78 L 94.900391 128.19922 C 94.900391 129.59922 95.899609 130.80078 98.599609 130.80078 L 100.5 130.80078 C 103.3 130.80078 104.30078 129.59922 104.30078 128.19922 L 104.30078 78 C 104.30078 76.6 103.2 75.400391 100.5 75.400391 L 98.599609 75.400391 z " />
</svg>