<?xml version="1.0" encoding="utf-8"?>
<svg version="1.1" xmlns="http://www.w3.org/2000/svg" xmlns:xlink="http://www.w3.org/1999/xlink" x="0px" y="0px"
	 viewBox="0 0 85.04 85.04" height="200" wight="200" enable-background="new 0 0 85.04 85.04" xml:space="preserve" preserveAspectRatio="none">
<path d="M52.08661,34.62846c0,1.08776-0.30108,1.98845-1.28082,3.26425c-4.63244,5.89013-7.00529,13.43166-7.72073,17.93315
		c-0.18878,1.05112-0.86646,1.57571-2.10952,1.57571h-1.43185c-1.35536,0-2.10856-0.63646-1.92074-1.80136
		c0.82871-5.06466,3.69143-12.98035,8.24932-19.02091c0.26333-0.33751,0.1123-0.63742-0.30205-0.63742H34.15806
		c-0.6409,0-1.20531-0.30087-1.20531-1.65093V33.5783c0-1.31342,0.56441-1.68854,1.20531-1.68854h15.21686
		C51.25791,31.88976,52.08661,32.90231,52.08661,34.62846z M82.91406,60.23633c1.17383,0,2.12598-0.95215,2.12598-2.12598V19.84229
		c0-1.95361-1.58984-3.54297-3.54395-3.54297h-9.21191v-2.12598c0-1.17432-0.95215-2.12598-2.12598-2.12598
		s-2.12598,0.95166-2.12598,2.12598v2.12598h-4.25195v-2.12598c0-1.17432-0.95215-2.12598-2.12598-2.12598
		s-2.12598,0.95166-2.12598,2.12598v2.12598h-34.0166v-2.12598c0-1.17432-0.95166-2.12598-2.12598-2.12598
		s-2.12598,0.95166-2.12598,2.12598v2.12598h-4.25195v-2.12598c0-1.17432-0.95166-2.12598-2.12598-2.12598
		s-2.12598,0.95166-2.12598,2.12598v2.12598h-9.2124c-1.95361,0-3.54297,1.58936-3.54297,3.54297v49.60693
		c0,1.95312,1.58936,3.54297,3.54297,3.54297h79.36963c1.17383,0,2.12598-0.95215,2.12598-2.12598s-0.95215-2.12598-2.12598-2.12598
		H4.25244V20.55127h8.50342v2.12598c0,1.17432,0.95166,2.12598,2.12598,2.12598s2.12598-0.95166,2.12598-2.12598v-2.12598h4.25195
		v2.12598c0,1.17432,0.95166,2.12598,2.12598,2.12598s2.12598-0.95166,2.12598-2.12598v-2.12598h34.0166v2.12598
		c0,1.17432,0.95215,2.12598,2.12598,2.12598s2.12598-0.95166,2.12598-2.12598v-2.12598h4.25195v2.12598
		c0,1.17432,0.95215,2.12598,2.12598,2.12598s2.12598-0.95166,2.12598-2.12598v-2.12598h8.50391v37.55908
		C80.78809,59.28418,81.74023,60.23633,82.91406,60.23633z"/>
</svg>
