<?xml version="1.0" encoding="UTF-8" standalone="no"?>
<svg
   xmlns:dc="http://purl.org/dc/elements/1.1/"
   xmlns:cc="http://creativecommons.org/ns#"
   xmlns:rdf="http://www.w3.org/1999/02/22-rdf-syntax-ns#"
   xmlns:svg="http://www.w3.org/2000/svg"
   xmlns="http://www.w3.org/2000/svg"
   viewBox="0 0 85.04 85.04"
   id="innogy_picto_c-check.svg"
   version="1.1">
  <!-- ##################################################################################################### -->
  <!-- For positive version please edit color rgba(0,0,0,1); -->
  <!-- or -->
  <!-- For negative version please edit color rgba(255,255,255,1); -->
  <!-- ##################################################################################################### -->
  <path
     d="M 42.519531 0 A 42.51969 42.51969 0 1 0 85.039062 42.519531 A 42.51968 42.51968 0 0 0 42.519531 0 z M 42.519531 4.2519531 A 38.26773 38.26773 0 1 1 4.2519531 42.519531 A 38.31107 38.31107 0 0 1 42.519531 4.2519531 z M 51.046875 25.505859 A 2.126 2.126 0 0 0 49.015625 26.935547 L 40.744141 50.570312 L 35.205078 39.621094 A 2.126472 2.126472 0 1 0 31.410156 41.541016 L 39.205078 56.943359 A 2.12486 2.12486 0 0 0 41.101562 58.109375 C 41.148429 58.109348 41.195314 58.108395 41.242188 58.105469 A 2.12716 2.12716 0 0 0 43.109375 56.685547 L 53.029297 28.339844 A 2.126 2.126 0 0 0 51.046875 25.505859 z " />
</svg>
