<?xml version="1.0" encoding="utf-8"?>
<svg version="1.1" xmlns="http://www.w3.org/2000/svg" xmlns:xlink="http://www.w3.org/1999/xlink" x="0px" y="0px"
	 viewBox="0 0 85.04 85.04" height="200" wight="200" enable-background="new 0 0 85.04 85.04" xml:space="preserve" preserveAspectRatio="none">
	<path d="M45.52612,42.51978l27.552-27.552c0.83105-0.83057,0.83105-2.17627,0-3.00684c-0.83008-0.83008-2.17578-0.83008-3.00586,0
		L42.51978,39.51343l-27.552-27.55249c-0.83008-0.83008-2.17676-0.83008-3.00684,0c-0.83008,0.83057-0.83008,2.17627,0,3.00684
		l27.55249,27.552L11.96094,70.07227c-0.83008,0.83008-0.83008,2.17578,0,3.00586c0.41504,0.41504,0.95947,0.62305,1.50342,0.62305
		s1.08838-0.20801,1.50342-0.62305l27.552-27.552l27.55249,27.552c0.41504,0.41504,0.95898,0.62305,1.50293,0.62305
		s1.08789-0.20801,1.50293-0.62305c0.83105-0.83008,0.83105-2.17578,0-3.00586L45.52612,42.51978z"/>
</svg>
