<?xml version="1.0" encoding="utf-8"?>
<svg version="1.1" xmlns="http://www.w3.org/2000/svg" xmlns:xlink="http://www.w3.org/1999/xlink" x="0px" y="0px"
	 viewBox="0 0 85.04 85.04" height="200" wight="200" enable-background="new 0 0 85.04 85.04" xml:space="preserve" preserveAspectRatio="none">
	<path d="M67.44464,48.99542c-9.70172,0-17.64136,5.65613-18.88879,15.48505L4.35986,64.45673
		c-0.02832-0.02832-0.09375-0.11029-0.09326-0.26062c0.0257-9.79626-0.00482-38.77966-0.01355-46.02167l37.18671,21.91571
		c0.33344,0.19617,0.70642,0.29425,1.07996,0.29425c0.37347,0,0.74646-0.09808,1.07947-0.29425l37.18811-21.91553l-0.01306,23.04352
		c0,1.17407,0.95105,2.12561,2.12476,2.12561h0.00098c1.17371,0,2.12573-0.95056,2.12573-2.12366l0.01367-24.69324
		c0-2.22614-1.47833-4.47961-4.30322-4.47961L4.31934,12.04822c-1.50079,0-2.76385,0.68121-3.55573,1.91821
		C0.0542,15.07562-0.00049,16.2077,0,16.5293c0.00195,1.49219,0.04395,36.6698,0.01514,47.65509
		c-0.00293,1.24536,0.47064,2.40771,1.33484,3.27338c0.82507,0.8266,1.91431,1.28235,3.0675,1.28235l44.01703-0.00946
		c0.70178,10.58942,8.74042,16.30872,19.05603,16.30872c4.22949,0,7.96387-0.7207,11.06934-1.93555l1.48438-0.54004
		c0.67578-0.26953,0.81055-0.6748,0.62988-1.34961l-0.35938-1.25977c-0.22559-0.81055-0.58496-0.99023-1.30469-0.76465
		l-1.21582,0.49414c-2.69922,1.03516-6.7041,1.75488-10.03418,1.75488c-8.09961,0-14.93945-3.95898-14.93945-14.39941
		c0-9.31445,6.47949-14.62402,14.48926-14.62402c8.82031,0,13.81445,5.84961,13.81445,12.91406
		c0,5.40039-1.88965,8.28027-4.63477,8.28027c-1.125,0-1.5293-0.31543-1.5293-1.44043v-8.23438
		c0-4.18457-2.20508-6.61426-7.78516-6.61426c-2.33984,0-4.41016,0.44922-6.2998,1.21484L59.5257,59.0755
		c-0.58496,0.22461-0.6748,0.58496-0.54004,1.21484l0.26953,1.16992c0.18066,0.76465,0.54004,0.94434,1.125,0.71973l1.16992-0.4502
		c1.48535-0.49512,3.46484-0.94434,5.1748-0.94434c2.9248-0.0459,4.18555,1.0791,4.18555,3.64453v0.6748l-4.00488,0.22461
		c-6.03027,0.31543-8.73047,2.52051-8.73047,6.48047c0,2.96973,1.93555,5.12988,5.89551,5.12988
		c2.74414,0,5.35449-1.26074,6.92969-3.33008c0.4043,1.84473,1.93457,3.10449,4.54492,3.10449
		c5.39941,0,9.49414-4.72461,9.49414-11.96973C85.03937,56.64484,78.87433,48.99542,67.44464,48.99542z M75.60229,16.29657
		L42.51971,35.79303L9.4389,16.29742L75.60229,16.29657z M70.91046,68.97491c0,3.28418-3.24023,4.67969-5.80566,4.67969
		c-1.66406,0-2.6543-0.71973-2.6543-2.29492c0-1.93457,1.5293-3.24023,5.08496-3.41992l3.375-0.22461V68.97491z"/>
</svg>
