<?xml version="1.0" encoding="UTF-8" standalone="no"?>
<svg
   xmlns:dc="http://purl.org/dc/elements/1.1/"
   xmlns:cc="http://creativecommons.org/ns#"
   xmlns:rdf="http://www.w3.org/1999/02/22-rdf-syntax-ns#"
   xmlns:svg="http://www.w3.org/2000/svg"
   xmlns="http://www.w3.org/2000/svg"
   version="1.1"
   viewBox="0 0 85.04 85.04">
  <!-- ##################################################################################################### -->
  <!-- For positive version please edit color rgba(0,0,0,1); -->
  <!-- or -->
  <!-- For negative version please edit color rgba(255,255,255,1); -->
  <!-- ##################################################################################################### -->
  <path
     d="M 42.519531 0 C 25.321911 -6.4309416e-005 9.8172294 10.359815 3.2363281 26.248047 C -3.3445598 42.136246 0.29457748 60.423483 12.455078 72.583984 C 24.615579 84.744485 42.902817 88.383622 58.791016 81.802734 C 74.679248 75.221833 85.039127 59.717151 85.039062 42.519531 C 85.03898 19.036677 66.002385 8.2289876e-005 42.519531 0 z M 42.519531 4.2519531 C 57.997394 4.2518916 71.952185 13.575588 77.875 27.875 C 83.797803 42.174384 80.52258 58.63367 69.578125 69.578125 C 58.63367 80.52258 42.174384 83.797803 27.875 77.875 C 13.575588 71.952185 4.2518916 57.997394 4.2519531 42.519531 C 4.275921 21.394867 21.394867 4.275921 42.519531 4.2519531 z M 42.042969 28.144531 C 41.522135 29.85026 40.591145 31.360677 39.25 32.675781 C 37.908854 33.977865 36.613281 34.882813 35.363281 35.390625 L 35.363281 40.371094 C 37.563802 39.485677 39.503906 38.098958 41.183594 36.210938 L 41.183594 56.894531 L 45.675781 56.894531 L 45.675781 28.144531 L 42.042969 28.144531 z " />
</svg>
