<?xml version="1.0" encoding="UTF-8" standalone="no"?>
<svg
   xmlns:dc="http://purl.org/dc/elements/1.1/"
   xmlns:cc="http://creativecommons.org/ns#"
   xmlns:rdf="http://www.w3.org/1999/02/22-rdf-syntax-ns#"
   xmlns:svg="http://www.w3.org/2000/svg"
   xmlns="http://www.w3.org/2000/svg"
   version="1.1"
   viewBox="0 0 85.04 85.04">
  <!-- ##################################################################################################### -->
  <!-- For positive version please edit color rgba(0,0,0,1); -->
  <!-- or -->
  <!-- For negative version please edit color rgba(255,255,255,1); -->
  <!-- ##################################################################################################### -->
  <path
     d="M 42.519531 0 C 25.321911 -6.4309416e-005 9.8172294 10.359815 3.2363281 26.248047 C -3.3445598 42.136246 0.29457773 60.423483 12.455078 72.583984 C 24.615579 84.744485 42.902817 88.383622 58.791016 81.802734 C 74.679248 75.221833 85.039127 59.717151 85.039062 42.519531 C 85.03898 19.036677 66.002385 8.2289876e-005 42.519531 0 z M 42.519531 4.2519531 C 57.997394 4.2518916 71.952185 13.575588 77.875 27.875 C 83.797803 42.174384 80.52258 58.63367 69.578125 69.578125 C 58.63367 80.52258 42.174384 83.797803 27.875 77.875 C 13.575588 71.952185 4.2518916 57.997394 4.2519531 42.519531 C 4.275921 21.394867 21.394867 4.275921 42.519531 4.2519531 z M 41.925781 28.144531 C 39.686198 28.144531 37.889323 28.828125 36.535156 30.195312 C 35.19401 31.5625 34.386719 33.704427 34.113281 36.621094 L 38.585938 37.167969 C 38.742188 34.186198 39.816406 32.695312 41.808594 32.695312 C 42.720052 32.695312 43.455729 33.014323 44.015625 33.652344 C 44.57552 34.290364 44.855469 35.234375 44.855469 36.484375 C 44.855469 37.65625 44.516927 38.821615 43.839844 39.980469 C 43.384115 40.774739 42.166667 42.298177 40.1875 44.550781 C 37.6875 47.376302 36.001302 49.661459 35.128906 51.40625 C 34.269531 53.138021 33.755208 54.967448 33.585938 56.894531 L 49.367188 56.894531 L 49.367188 51.796875 L 40.421875 51.796875 C 40.65625 51.302084 40.96224 50.794269 41.339844 50.273438 C 41.730469 49.752603 42.648437 48.678385 44.09375 47.050781 C 45.643229 45.31901 46.750002 43.899739 47.414062 42.792969 C 48.078125 41.673177 48.566406 40.566406 48.878906 39.472656 C 49.204427 38.365885 49.367186 37.226562 49.367188 36.054688 C 49.367188 33.984375 48.742188 32.148438 47.492188 30.546875 C 46.242188 28.945313 44.386719 28.144531 41.925781 28.144531 z " />
</svg>
