<svg version="1.1" xmlns="http://www.w3.org/2000/svg" xmlns:xlink="http://www.w3.org/1999/xlink" x="0px" y="0px"
	 viewBox="0 0 85.04 85.04" height="33" wight="33" enable-background="new 0 0 85.04 85.04" preserveAspectRatio="none" xml:space="preserve">
	<path d="M84.41541,65.29254L66.18359,47.08362c-1.66125-1.65454-4.35974-1.65552-6.01709,0.00098L48.15387,59.08649
		c-3.17108-0.82141-9.83472-3.50934-14.69934-8.37335c-5.54242-5.54291-8.05872-12.06982-8.88007-14.61072l12.2392-12.2168
		c1.65839-1.65552,1.66132-4.35223,0.00684-6.01221L20.24017,1.25116c-0.80328-0.80579-1.87268-1.25018-3.01099-1.25165
		c-0.00098,0-0.00244,0-0.00391,0c-1.1358,0-2.20422,0.44244-3.00848,1.2453L1.74512,13.69745
		c-0.60748,0.60559-1.01276,1.36694-1.17145,2.20056c-0.8028,4.19305-3.68781,26.29175,18.38708,49.57721
		C34.52203,81.88995,49.948,85.03888,59.48383,85.03888c3.55402,0,6.29053-0.43756,7.90979-0.78918
		c0.79498-0.17291,1.52063-0.56946,2.09686-1.14667l5.89105-5.88379c0.83112-0.82922,0.83209-2.17609,0.00195-3.00629
		c-0.82916-0.83124-2.17499-0.83319-3.0061-0.00195l-5.88617,5.88275c-5.41644,1.17401-24.61267,3.37555-44.44427-17.5448
		C1.40039,40.77014,4.01581,20.53302,4.74829,16.70819l12.4809-12.4541l16.58038,16.62177L21.56989,33.09314
		c-1.13684,1.13544-1.53674,2.78705-1.04456,4.30975c1.14221,3.53033,3.94952,10.34393,9.92218,16.3175
		c6.78613,6.7843,15.65155,9.22607,16.64087,9.48297c1.44836,0.37506,3.0061-0.05273,4.06573-1.11053L63.17944,50.0929
		l18.23187,18.20795c0.83112,0.83118,2.17688,0.82922,3.00604-0.00195C85.2475,67.46869,85.24652,66.12183,84.41541,65.29254z"/>
</svg>
