<?xml version="1.0" encoding="utf-8"?>
<svg version="1.1" xmlns="http://www.w3.org/2000/svg" xmlns:xlink="http://www.w3.org/1999/xlink" x="0px" y="0px"
	 viewBox="0 0 85.04 85.04" height="200" wight="200" enable-background="new 0 0 85.04 85.04" xml:space="preserve" preserveAspectRatio="none">
	<path d="M42.51969,4.25196c21.10089,0,38.26773,17.16683,38.26773,38.26773S63.62058,80.78741,42.51969,80.78741
		S4.25196,63.62058,4.25196,42.51969S21.41879,4.25196,42.51969,4.25196 M42.51969,0C19.03671,0,0,19.03671,0,42.51969
		s19.03671,42.51968,42.51969,42.51968s42.51968-19.03671,42.51968-42.51968S66.00266,0,42.51969,0L42.51969,0z"/>
	<path d="M34.0049,31.90753c0,1.18382,0.9596,2.1434,2.14343,2.1434l11.80792,0.00048L30.39182,51.6156
		c-0.83739,0.83738-0.83739,2.19458,0,3.03196c0.83739,0.83738,2.19461,0.83738,3.032,0l17.56435-17.56411l-0.00048,11.80663
		c0,1.18382,0.9603,2.1441,2.14413,2.1441c1.18418-0.00035,2.14378-0.95993,2.14378-2.14375V31.90822
		c0-0.59191-0.2399-1.12845-0.62778-1.51633c-0.38788-0.38787-0.92443-0.62777-1.516-0.62742l-16.98314-0.0007
		C34.96415,29.76308,34.00455,30.72267,34.0049,31.90753z"/>
</svg>
