<svg version="1.1" id="innogy_picto_c-arrow-right-up-02.svg"
	 xmlns="http://www.w3.org/2000/svg" xmlns:xlink="http://www.w3.org/1999/xlink" x="0px" y="0px" viewBox="0 0 44 44"
	 style="enable-background:new 0 0 44 44;" xml:space="preserve">
<path d="M22,2.2
	c10.9,0,19.8,8.9,19.8,19.8c0,10.9-8.9,19.8-19.8,19.8C11.1,41.8,2.2,32.9,2.2,22c0,0,0,0,0,0C2.2,11.1,11.1,2.2,22,2.2 M22,0
	C9.8,0,0,9.8,0,22s9.8,22,22,22s22-9.8,22-22c0,0,0,0,0,0C44,9.8,34.2,0,22,0C22,0,22,0,22,0L22,0z M17.6,16.5
	c0,0.6,0.5,1.1,1.1,1.1c0,0,0,0,0,0l6.1,0l-9.1,9.1c-0.4,0.4-0.4,1.1,0,1.6c0.4,0.4,1.1,0.4,1.6,0l9.1-9.1l0,6.1
	c0,0.6,0.5,1.1,1.1,1.1c0.6,0,1.1-0.5,1.1-1.1v-8.8c0-0.6-0.5-1.1-1.1-1.1c0,0,0,0,0,0l-8.8,0C18.1,15.4,17.6,15.9,17.6,16.5
	C17.6,16.5,17.6,16.5,17.6,16.5z"/>
</svg>
