<?xml version="1.0" encoding="utf-8"?>
<!-- Generator: Adobe Illustrator 23.0.3, SVG Export Plug-In . SVG Version: 6.00 Build 0)  -->
<svg version="1.1" id="innogy_picto_light-bulb.svg"
	 xmlns="http://www.w3.org/2000/svg" xmlns:xlink="http://www.w3.org/1999/xlink" x="0px" y="0px" viewBox="0 0 44 44"
	 enable-background="new 0 0 44 44" xml:space="preserve">
<path d="M22,0C12.9,0,5.5,7.4,5.5,16.5c0,5.8,3.2,9.2,6.6,12.8l0.7,0.7c2.8,3,3.2,3,3.6,3h9.2v2.2h-8c-0.8,0-1.5,0.7-1.5,1.5l0,3.5
	c0,0.9,0.7,1.5,1.5,1.5c0,0,0,0,0,0h0.4c1.3,2.2,4.1,2.8,6.3,1.5c0.6-0.4,1.2-0.9,1.5-1.5h0.9c0.6,0,1.1-0.5,1.1-1.1
	c0-0.6-0.5-1.1-1.1-1.1h-8.4l0-2.2h8c0.9,0,1.5-0.7,1.5-1.5v-3.5c0-0.9-0.7-1.6-1.6-1.6h-9.5c-0.5-0.4-1.8-1.7-2.4-2.3l-0.7-0.7
	c-3.4-3.5-6-6.3-6-11.3C7.7,8.6,14.1,2.2,22,2.2c7.9,0,14.3,6.4,14.3,14.3c0,4.9-2.7,7.7-6,11.3l-0.7,0.7c-0.4,0.4-0.4,1.1,0,1.6
	c0.4,0.4,1.1,0.4,1.6,0l0.7-0.7c3.4-3.6,6.6-7,6.6-12.8C38.5,7.4,31.1,0,22,0z"/>
</svg>
