<svg version="1.1" id="innogy_picto_close.svg" xmlns="http://www.w3.org/2000/svg" xmlns:xlink="http://www.w3.org/1999/xlink"
   x="0px" y="0px" viewBox="0 0 62.4 62.4" style="enable-background:new 0 0 62.4 62.4;" xml:space="preserve">
<path d="M34.2,31.2L61.7,3.6
  c0.8-0.8,0.8-2.2,0-3c-0.8-0.8-2.2-0.8-3,0l0,0L31.2,28.2L3.6,0.6c-0.8-0.8-2.2-0.8-3,0s-0.8,2.2,0,3l27.6,27.6L0.6,58.7
  c-0.8,0.8-0.8,2.2,0,3c0.8,0.8,2.2,0.8,3,0l27.6-27.6l27.6,27.6c0.8,0.8,2.2,0.8,3,0s0.8-2.2,0-3L34.2,31.2z"/>
</svg>
