<svg version="1.1" id="innogy_picto_c-cross.svg" xmlns="http://www.w3.org/2000/svg" xmlns:xlink="http://www.w3.org/1999/xlink"
	 x="0px" y="0px" viewBox="0 0 44 44" style="enable-background:new 0 0 44 44;" xml:space="preserve">
<path d="M22,2.2
	c10.9,0,19.8,8.9,19.8,19.8c0,10.9-8.9,19.8-19.8,19.8C11.1,41.8,2.2,32.9,2.2,22c0,0,0,0,0,0C2.2,11.1,11.1,2.2,22,2.2 M22,0
	C9.8,0,0,9.8,0,22s9.8,22,22,22s22-9.8,22-22c0,0,0,0,0,0C44,9.8,34.2,0,22,0C22,0,22,0,22,0L22,0z M29,27.5L23.6,22l5.5-5.5
	c0.4-0.4,0.4-1.1,0-1.6c-0.4-0.4-1.1-0.4-1.6,0l0,0L22,20.4L16.6,15c-0.4-0.4-1.1-0.4-1.6,0c-0.4,0.4-0.4,1.1,0,1.6l5.5,5.5L15,27.5
	c-0.4,0.4-0.4,1.1,0,1.6s1.1,0.4,1.6,0l5.5-5.5l5.5,5.5c0.4,0.4,1.1,0.4,1.6,0C29.4,28.6,29.4,27.9,29,27.5z"/>
</svg>
