<svg width="28" height="43" viewBox="0 0 28 43" fill="none" xmlns="http://www.w3.org/2000/svg">
<path d="M16.4807 42.756C16.4178 42.7664 16.3536 42.7664 16.2907 42.756C16.0517 42.715 15.8341 42.5934 15.6739 42.4115C15.5138 42.2295 15.4209 41.9982 15.4107 41.756V25.746H8.78065C8.3323 25.7478 7.89537 25.6047 7.53497 25.338C7.17456 25.0713 6.90998 24.6953 6.78065 24.266L0.400659 2.97596C0.301516 2.65137 0.2788 2.30827 0.334314 1.97345C0.389828 1.63864 0.522058 1.32118 0.720652 1.04596C0.9089 0.791635 1.15481 0.585608 1.43817 0.444798C1.72153 0.303987 2.03426 0.232413 2.35066 0.235966H19.3507C19.6318 0.235966 19.9014 0.347663 20.1002 0.546452C20.299 0.74524 20.4107 1.01483 20.4107 1.29596C20.412 1.436 20.3855 1.57492 20.3328 1.70469C20.2802 1.83445 20.2023 1.95248 20.1037 2.05198C20.0052 2.15147 19.8879 2.23044 19.7586 2.28434C19.6294 2.33823 19.4907 2.36598 19.3507 2.36597H2.45065L8.82066 23.616H15.8207C16.2991 23.6238 16.7554 23.8187 17.0918 24.1589C17.4283 24.4991 17.6181 24.9575 17.6207 25.436V35.866L25.4707 15.106H16.9107C16.5985 15.1273 16.2857 15.075 15.9974 14.9535C15.7091 14.8319 15.4533 14.6444 15.2507 14.406C15.0856 14.0824 14.9996 13.7242 14.9996 13.361C14.9996 12.9977 15.0856 12.6396 15.2507 12.316L16.6507 7.71598C16.6907 7.58158 16.7569 7.45645 16.8456 7.34784C16.9343 7.23924 17.0437 7.14932 17.1674 7.08329C17.2911 7.01725 17.4267 6.97641 17.5663 6.96314C17.7059 6.94987 17.8467 6.96444 17.9807 7.00599C18.2506 7.0891 18.4767 7.27555 18.6097 7.52469C18.7427 7.77384 18.7718 8.06545 18.6907 8.33597L17.2707 12.976H25.8106C26.1117 12.9692 26.4098 13.0369 26.6784 13.173C26.947 13.309 27.178 13.5093 27.3507 13.756C27.5459 14.0704 27.6624 14.4273 27.6903 14.7964C27.7182 15.1654 27.6565 15.5358 27.5107 15.876L17.6007 42.046C17.5236 42.2488 17.3867 42.4234 17.2081 42.5467C17.0295 42.6699 16.8176 42.7359 16.6007 42.736" fill="white"/>
</svg>
