<svg version="1.1" xmlns="http://www.w3.org/2000/svg" xmlns:xlink="http://www.w3.org/1999/xlink" x="0px" y="0px"
   viewBox="0 0 80 80" enable-background="new 0 0 80 80" xml:space="preserve">
<path d="M53.2,24L24,53.2c-0.8,0.8-0.8,2.1,0,2.8c0.4,0.4,0.9,0.6,1.4,0.6c0.5,0,1-0.2,1.4-0.6L56,26.9c0.8-0.8,0.8-2.1,0-2.8
  C55.3,23.3,53.9,23.3,53.2,24z"/>
<path d="M79.4,15.2L64.7,0.6c-0.8-0.8-2.1-0.8-2.8,0l-56,56c-0.3,0.3-0.5,0.6-0.5,0.9l-5.4,20c-0.2,0.7,0,1.4,0.6,2
  c0.3,0.3,0.9,0.7,1.9,0.5l20.2-5.5c0.4-0.1,0.7-0.3,0.9-0.6l39.2-39.1c0.8-0.8,0.8-2.1,0-2.8c-0.8-0.8-2.1-0.8-2.8,0L23.6,68.3
  L11.7,56.4l43.1-43.1l13.3,13.3c0.8,0.8,2,0.8,2.8,0c0.8-0.8,8.5-8.6,8.5-8.6C80.2,17.3,80.2,16,79.4,15.2z M20.6,70.9L4.8,75.2
  L9,59.4C9,59.4,20.6,70.9,20.6,70.9z M69.5,22.4L57.7,10.5l5.6-5.6l11.9,11.9C75.2,16.7,69.5,22.4,69.5,22.4z"/>
</svg>
