<?xml version="1.0" encoding="UTF-8" standalone="no"?>
<svg
   xmlns:dc="http://purl.org/dc/elements/1.1/"
   xmlns:cc="http://creativecommons.org/ns#"
   xmlns:rdf="http://www.w3.org/1999/02/22-rdf-syntax-ns#"
   xmlns:svg="http://www.w3.org/2000/svg"
   xmlns="http://www.w3.org/2000/svg"
   version="1.1"
   viewbox="0 0 42.979 42.978001"
   height="42.978001"
   width="42.979">
  <path
     d="m 21.489,2.149 c 10.665,0 19.341,8.676 19.341,19.34 0,10.664 -8.676,19.34 -19.341,19.34 -10.664,0 -19.34,-8.676 -19.34,-19.34 0,-10.664 8.676,-19.34 19.34,-19.34 M 21.489,0 C 9.621,0 0,9.621 0,21.489 c 0,11.869 9.621,21.489 21.489,21.489 11.869,0 21.49,-9.62 21.49,-21.489 C 42.979,9.621 33.358,0 21.489,0" />
  <path
     d="m 20.0535,28.099 c 0,-0.855 0.573,-1.388 1.435,-1.388 0.838,0 1.437,0.533 1.437,1.388 0,0.831 -0.599,1.363 -1.437,1.363 -0.862,0 -1.435,-0.532 -1.435,-1.363 m 0.263,-4.623 -0.144,-9.29 c 0,-0.369 0.216,-0.67 0.981,-0.67 h 0.647 c 0.765,0 0.981,0.301 0.981,0.67 l -0.144,9.29 c 0,0.371 -0.215,0.67 -0.981,0.67 h -0.383 c -0.743,0 -0.957,-0.299 -0.957,-0.67" />
</svg>
