<svg width="34" height="43" viewBox="0 0 34 43" xmlns="http://www.w3.org/2000/svg" xmlns:xlink="http://www.w3.org/1999/xlink">
<path d="M16.4041 42.7361C11.2041 42.7361 5.40405 40.0861 2.71405 34.8361C-1.08595 27.4361 1.12404 19.3161 8.22404 14.6461C9.34678 13.9545 10.3304 13.0592 11.1241 12.0061C11.9121 10.8269 12.3451 9.44618 12.3717 8.0281C12.3982 6.61003 12.0173 5.21412 11.274 4.00613C11.214 3.89613 11.1341 3.78611 11.0641 3.67611C10.8042 3.29934 10.5096 2.94781 10.184 2.62613L10.084 2.51611C9.95203 2.38996 9.85707 2.23008 9.80948 2.0538C9.76188 1.87752 9.76347 1.69156 9.81405 1.51611C9.85775 1.34052 9.94606 1.17919 10.0705 1.04779C10.1949 0.916382 10.3511 0.81935 10.524 0.766111C16.944 -1.23389 23.8441 2.1661 28.9841 9.9761C31.3697 13.4659 32.7816 17.5289 33.0741 21.7461C33.2269 24.3146 33.0046 26.8917 32.414 29.3961C32.0426 30.9339 31.5201 32.4312 30.854 33.8661C30.7309 34.1197 30.5127 34.3145 30.2469 34.4081C29.981 34.5017 29.6889 34.4866 29.434 34.3661C29.1805 34.243 28.9857 34.0248 28.8921 33.7589C28.7985 33.493 28.8135 33.2009 28.934 32.9461C29.5378 31.6638 30.0102 30.3236 30.3441 28.9461C30.8796 26.6538 31.0817 24.2962 30.944 21.9461C30.6672 18.0987 29.3769 14.3932 27.2041 11.2061C25.5941 8.77611 20.0641 1.3761 12.7641 2.4761V2.54611L13.0441 2.96612C13.9895 4.51841 14.4728 6.30805 14.4374 8.12524C14.402 9.94243 13.8492 11.7118 12.8441 13.2261C11.8849 14.5079 10.6986 15.6027 9.34405 16.4561C3.19405 20.5061 1.27404 27.5161 4.55404 33.9161C5.62287 35.94 7.25539 37.6107 9.25404 38.7261C7.78516 36.4042 7.08535 33.6785 7.25404 30.9361C7.43994 28.4649 8.2785 26.0872 9.68405 24.0461C12.184 20.3061 16.734 17.1661 21.244 18.5961C21.4171 18.6553 21.5726 18.7568 21.6966 18.8912C21.8205 19.0256 21.909 19.1889 21.9541 19.3661C21.9958 19.5437 21.9911 19.729 21.9403 19.9042C21.8895 20.0794 21.7943 20.2385 21.664 20.3661C21.3911 20.6655 21.1621 21.0022 20.9841 21.3661C20.3741 22.5161 20.1341 24.2961 22.434 26.1961C26.184 29.2961 27.434 33.7361 25.664 37.7761C25.197 38.8374 24.4984 39.7807 23.6194 40.5369C22.7403 41.2931 21.7032 41.8429 20.584 42.1461C19.2173 42.585 17.7895 42.8044 16.354 42.7961L16.4041 42.7361ZM15.354 40.6361C16.8723 40.7615 18.4004 40.5917 19.854 40.1361C20.6934 39.9306 21.474 39.5341 22.1349 38.9773C22.7958 38.4205 23.3191 37.7185 23.664 36.9261C25.054 33.7461 24.064 30.3461 21.034 27.8361C20.034 27.0361 17.034 24.1461 19.034 20.3861C16.034 20.3061 13.154 22.6061 11.394 25.2461C10.1917 26.9722 9.47354 28.9887 9.31405 31.0861C9.11405 34.2861 10.5641 39.7061 15.3141 40.6161" fill="white"/>
</svg>
