<svg version="1.1" id="innogy_picto_gift.svg" xmlns="http://www.w3.org/2000/svg" xmlns:xlink="http://www.w3.org/1999/xlink" viewBox="0 0 85.04 85.04">
  	<path d="M80.78711,14.59863H73.56982A16.72857,16.72857,0,0,0,43.757,6.47845a7.66344,7.66344,0,0,0-2.32568-.02283A16.93921,16.93921,0,0,0,28.14258,0,16.74316,16.74316,0,0,0,11.47046,14.59863H4.252A4.25652,4.25652,0,0,0,0,18.85059V31.18115a4.25652,4.25652,0,0,0,4.252,4.252v45.354a4.25652,4.25652,0,0,0,4.252,4.252H78.66113a2.126,2.126,0,1,0,0-4.252H44.64551v-45.354H76.53516V70.06738a2.126,2.126,0,1,0,4.252,0V35.43311a4.25652,4.25652,0,0,0,4.252-4.252V18.85059A4.25652,4.25652,0,0,0,80.78711,14.59863ZM56.99219,4.252A12.42834,12.42834,0,0,1,69.27264,14.59863H51.00909a8.485,8.485,0,0,0-3.17664-6.34625A12.51217,12.51217,0,0,1,56.99219,4.252ZM46.74286,14.59863H38.29669A4.23123,4.23123,0,0,1,46.74286,14.59863ZM28.14258,4.252a12.69368,12.69368,0,0,1,9.16516,3.92511,8.48384,8.48384,0,0,0-3.27728,6.42157H15.76831A12.49621,12.49621,0,0,1,28.14258,4.252ZM4.252,18.85059h36.1416V31.18115H4.252V18.85059Zm36.1416,61.93652H8.50391v-45.354H40.39355v45.354Zm4.252-49.606V18.85059h36.1416L80.79,31.18115H44.64551Z"/>
</svg>
