<svg xmlns="http://www.w3.org/2000/svg" viewBox="0 0 30 30" height="30" width="30"><path d="M15 0C6.7 0 0 6.7 0 15s6.7 15 15 15 15-6.7 15-15S23.3 0 15 0zm0 1.5c7.5 0 13.5 6 13.5 13.5s-6 13.5-13.5 13.5S1.5 22.5 1.5 15 7.5 1.5 15 1.5z"/><path d="M15 7.885c.607 0 1.036.392 1.036.982 0 .642-.429 1.035-1.036 1.035-.625 0-1.036-.393-1.036-1.035.018-.59.43-.982 1.036-.982zm.179 4.339c.5 0 .66.214.66.464v8.963c0 .25-.178.464-.66.464h-.34c-.5 0-.678-.214-.678-.464v-8.963c0-.25.196-.464.678-.464z"/></svg>