<svg xmlns="http://www.w3.org/2000/svg" xmlns:xlink="http://www.w3.org/1999/xlink" x="0px" y="0px" viewBox="0 0 26 26" width="26" height="26" xml:space="preserve">
<path d="M18.6,6.1
  c0.7,0,1.3,0.6,1.3,1.3s-0.6,1.3-1.3,1.3s-1.3-0.6-1.3-1.3C17.3,6.6,17.9,6.1,18.6,6.1 M18.6,4.8c-1.4,0-2.6,1.2-2.6,2.6
  s1.2,2.6,2.6,2.6s2.6-1.2,2.6-2.6C21.2,5.9,20.1,4.8,18.6,4.8C18.6,4.8,18.6,4.8,18.6,4.8L18.6,4.8z M26,9.1C25.6,3.8,21-0.3,15.6,0
  c-5.1,0.3-9.1,4.6-9.1,9.7c0,1.5,0.3,2.9,1,4.3l-7.2,7.2C0.1,21.4,0,21.7,0,22l0,3c0,0.5,0.4,0.9,0.9,1h3.4c0.2,0,0.5-0.1,0.6-0.3
  c0.2-0.2,0.3-0.4,0.3-0.7l0-0.8H6c0.5,0,0.9-0.4,0.9-0.9l0-0.8h0.8c0.2,0,0.5-0.1,0.6-0.3c0.2-0.2,0.3-0.4,0.3-0.6l0-0.8h0.8
  c0.5,0,0.9-0.4,0.9-0.9c0,0,0,0,0,0l0-0.8l0.8,0h0c0.2,0,0.5-0.1,0.6-0.3c0.2-0.2,0.3-0.4,0.3-0.7v-0.8c0-0.4-0.3-0.6-0.6-0.7
  c-0.4,0-0.6,0.3-0.7,0.6c0,0,0,0,0,0v0.4l-0.8,0h0c-0.5,0-0.9,0.4-0.9,0.9c0,0,0,0,0,0l0,0.8H8.3c-0.5,0-0.9,0.4-0.9,0.9l0,0.8H6.5
  c-0.5,0-0.9,0.4-0.9,0.9l0,0.8H4.8c-0.5,0-0.9,0.4-0.9,0.9c0,0,0,0,0,0l0,0.8H1.3l0-2.7l7.4-7.4C8.9,14.4,9,14,8.8,13.8
  C6.6,9.7,8.1,4.6,12.2,2.3s9.2-0.7,11.5,3.4s0.7,9.2-3.4,11.5c-1.2,0.7-2.6,1-4,1c-0.4,0-0.8,0-1.2-0.1c-0.4-0.1-0.7,0.2-0.7,0.5
  c-0.1,0.4,0.2,0.7,0.5,0.7c0.5,0.1,0.9,0.1,1.4,0.1h0c2.7,0,5.3-1.1,7.1-3.1C25.2,14.5,26.2,11.8,26,9.1z"/>
</svg>
