<?xml version="1.0" encoding="UTF-8" standalone="no"?>
<svg
   xmlns:dc="http://purl.org/dc/elements/1.1/"
   xmlns:cc="http://creativecommons.org/ns#"
   xmlns:rdf="http://www.w3.org/1999/02/22-rdf-syntax-ns#"
   xmlns:svg="http://www.w3.org/2000/svg"
   xmlns="http://www.w3.org/2000/svg"
   height="85.03936"
   width="85.03936"
   viewBox="0 0 85.039359 85.039359"
   id="innogy_picto_leaf.svg"
   version="1.1">
    <path
       id="path2023"
       d="m 62.535885,21.956499 c -0.409945,-0.475596 -1.036204,-0.706113 -1.656663,-0.609795 -3.365702,0.511858 -14.778074,2.256899 -20.330427,3.225972 -6.632961,1.157629 -8.247836,2.203018 -10.333019,3.812608 -2.923337,2.256646 -5.175197,5.919448 -5.888467,8.371467 -0.94516,3.234958 -0.907649,6.677826 0.10777,9.891423 0.838457,2.260545 2.090548,4.345184 3.692241,6.147308 0.535757,0.519814 0.876638,1.20793 0.965551,1.949103 -0.0014,1.485319 -0.370298,2.469742 -1.557721,3.969587 -1.204264,1.397574 -2.813244,2.386174 -4.604175,2.828927 -1.429007,0.295651 -0.990066,2.438622 0.440101,2.148633 2.298249,-0.543198 4.360972,-1.810894 5.883703,-3.615971 1.145811,-1.330904 1.840965,-2.990329 1.985868,-4.740527 0.01519,-0.146444 0.08927,-1.178632 0.108379,-1.525607 0.03399,-0.616343 0.07251,-1.315263 0.15207,-2.106339 0.400571,-3.985072 3.008687,-6.829608 5.126103,-8.51473 2.132519,-1.697204 5.104678,-2.61316 8.385782,-2.550973 0.567956,0.08628 1.109951,-0.268328 1.258361,-0.823299 0.190875,-0.739455 -0.41167,-1.443512 -1.171732,-1.369138 l -0.05186,-5.16e-4 c -3.78415,-0.06546 -7.257106,1.014899 -9.786169,3.027829 -3.327718,2.647713 -5.344825,5.897136 -5.867635,9.428319 -1.229539,-1.471361 -2.201462,-3.140015 -2.874676,-4.935412 -0.879234,-2.793528 -0.909204,-5.785219 -0.08611,-8.5958 0.607526,-2.087956 2.689692,-5.370076 5.122576,-7.248056 1.703747,-1.315011 2.934413,-2.264953 9.370241,-3.388117 5.249214,-0.916203 15.779375,-2.532347 19.709557,-3.131056 -1.184846,3.919106 -4.236838,14.088241 -4.236838,14.088241 -0.667202,2.340232 -2.697499,9.461624 -4.412575,11.8827 -1.581211,2.365503 -3.831986,4.205674 -6.464549,5.285232 -2.770742,1.097613 -5.809622,1.327308 -8.713869,0.658642 -1.422016,-0.340062 -1.93211,1.792963 -0.510094,2.133025 1.2324,0.295022 2.495278,0.443756 3.762498,0.443122 2.139678,-0.0093 4.259357,-0.412492 6.253036,-1.189378 3.035756,-1.232664 5.634281,-3.343746 7.462555,-6.062696 1.932107,-2.726746 3.966437,-9.862737 4.732313,-12.549159 0,0 3.313338,-11.034475 4.395456,-14.611675 0.183058,-0.599566 0.04413,-1.251146 -0.367578,-1.723894 z" />
    <path
       id="path2025"
       d="m 60.755859,20.53125 c -3.36719,0.512084 -14.773915,2.257322 -20.349609,3.230469 -6.693409,1.168179 -8.581891,2.340823 -10.693359,3.970703 -3.102701,2.395104 -5.39407,6.107621 -6.175782,8.794922 -0.990375,3.391097 -0.951122,7.000515 0.113282,10.36914 l 0.0059,0.01953 0.0059,0.01953 c 0.87403,2.356451 2.179963,4.529622 3.84961,6.408203 l 0.01953,0.02148 0.02148,0.02148 c 0.391261,0.379617 0.633818,0.882411 0.707032,1.421875 -0.0106,1.292133 -0.266289,1.990363 -1.359375,3.375 -1.091879,1.263143 -2.546914,2.15979 -4.167969,2.560547 l 0.03125,-0.0078 c -0.55883,0.115618 -1.030279,0.462035 -1.28125,0.896484 -0.250971,0.43445 -0.302594,0.921662 -0.210938,1.369141 0.09166,0.447479 0.330853,0.876944 0.732422,1.177735 0.401569,0.30079 0.971966,0.433716 1.53125,0.320312 l 0.01172,-0.0039 0.01367,-0.002 c 2.467396,-0.583177 4.682283,-1.944201 6.318359,-3.88086 l 0.002,-0.002 c 1.257251,-1.461225 2.019734,-3.284096 2.179688,-5.205078 7.3e-5,-7.19e-4 0.0019,-0.0032 0.002,-0.0039 0.02828,-0.27961 0.089,-1.176956 0.109375,-1.546875 0.03399,-0.616364 0.07106,-1.300967 0.148437,-2.070313 0.368879,-3.669779 2.798449,-6.342094 4.820313,-7.951172 1.953671,-1.554865 4.739001,-2.43215 7.857422,-2.373046 l -0.109375,-0.0078 c 0.97632,0.148314 1.922616,-0.471783 2.177734,-1.425781 l 0.002,-0.0039 v -0.0039 c 0.326987,-1.266755 -0.743431,-2.516593 -2.044921,-2.392578 -3.93386,-0.05983 -7.580561,1.056305 -10.275391,3.201172 -2.82943,2.251248 -4.729305,4.976589 -5.652344,7.949219 -0.656095,-0.998328 -1.372887,-1.964323 -1.794922,-3.085938 -0.822095,-2.630326 -0.850811,-5.444718 -0.07617,-8.089844 v -0.002 c 0.531147,-1.825454 2.588674,-5.092982 4.833985,-6.826171 0.851879,-0.65751 1.483013,-1.149768 2.720703,-1.65625 1.23769,-0.506483 3.101141,-1.015918 6.289062,-1.572266 4.884332,-0.852516 13.967624,-2.246681 18.400391,-2.923828 -1.347564,4.468299 -3.859375,12.832031 -3.859375,12.832031 l -0.002,0.0059 -0.002,0.0059 c -0.333602,1.170118 -1.003916,3.522589 -1.800781,5.873047 -0.796866,2.350457 -1.764316,4.735027 -2.490235,5.759765 l -0.0078,0.0078 -0.0059,0.0098 c -1.489355,2.228087 -3.608652,3.960887 -6.08789,4.978516 C 42.601337,55.126949 39.737235,55.343422 37,54.714844 h -0.002 c -0.555203,-0.132157 -1.129573,-0.01768 -1.541016,0.269531 -0.411948,0.287564 -0.665137,0.70764 -0.771484,1.152344 -0.106347,0.444703 -0.07127,0.936084 0.166015,1.378906 0.237284,0.442822 0.698068,0.802623 1.253907,0.935547 1.295364,0.310095 2.623114,0.467463 3.955078,0.466797 h 0.002 0.002 c 2.24081,-0.0098 4.458965,-0.432489 6.546875,-1.246094 l 0.0059,-0.002 0.0059,-0.002 c 3.185142,-1.293322 5.910526,-3.509616 7.830078,-6.361328 1.080604,-1.529461 2.050828,-4.003463 2.904297,-6.486329 0.853577,-2.483181 1.556035,-4.946117 1.939453,-6.291015 l 0.0039,-0.01172 c 0.0054,-0.01783 3.309971,-11.023323 4.390625,-14.595703 v -0.002 c 0.264592,-0.868983 0.06459,-1.816347 -0.53125,-2.501953 -0.59492,-0.690194 -1.507781,-1.024545 -2.408203,-0.884766 z m 0.248047,1.628906 h 0.002 c 0.340496,-0.05286 0.681281,0.07299 0.90625,0.333985 l 0.002,0.002 v 0.002 c 0.225751,0.259224 0.301548,0.612649 0.201172,0.941406 v 0.002 C 61.032113,27.021924 57.71875,38.054688 57.71875,38.054688 l -0.002,0.0059 -0.002,0.0059 c -0.38294,1.343219 -1.077581,3.783349 -1.914063,6.216797 -0.836482,2.433448 -1.848371,4.884003 -2.697265,6.082031 l -0.0059,0.0078 -0.0059,0.0078 c -1.735931,2.58162 -4.201952,4.586622 -7.083985,5.757813 -0.0014,5.53e-4 -0.0025,0.0014 -0.0039,0.002 -1.895382,0.7372 -3.909642,1.119577 -5.943359,1.128906 -1.202476,6.02e-4 -2.400878,-0.139972 -3.570313,-0.419922 h -0.002 c -0.155169,-0.03711 -0.162968,-0.07115 -0.185547,-0.113281 -0.02258,-0.04214 -0.0368,-0.128244 -0.01563,-0.216797 0.02118,-0.08855 0.07408,-0.158184 0.113282,-0.185547 0.0392,-0.02736 0.05967,-0.05273 0.214843,-0.01563 h 0.0039 l 0.0039,0.002 c 3.066915,0.706119 6.275239,0.463779 9.201172,-0.695312 l 0.0059,-0.002 0.0039,-0.002 c 2.779383,-1.139766 5.156317,-3.08259 6.828125,-5.578125 0.987833,-1.397001 1.890203,-3.779913 2.703125,-6.177735 0.812238,-2.395801 1.487964,-4.764924 1.822266,-5.9375 l 0.0039,-0.01172 c 0.0051,-0.01705 3.049402,-10.163107 4.232422,-14.076172 l 0.378906,-1.248047 -1.291015,0.195312 c -3.931805,0.598957 -14.455161,2.21469 -19.726563,3.134766 -3.247906,0.566816 -5.218322,1.093843 -6.630859,1.671875 -1.412537,0.578032 -2.249695,1.217499 -3.101563,1.875 -2.620457,2.022771 -4.726251,5.319465 -5.410156,7.669922 -0.868933,2.967105 -0.838356,6.125117 0.08984,9.074219 l 0.0078,0.02148 0.0078,0.01953 c 0.705821,1.882356 1.724581,3.633157 3.013672,5.175782 l 1.177734,1.410156 0.269531,-1.81836 c 0.488567,-3.299896 2.368761,-6.360076 5.566407,-8.904296 2.353889,-1.873507 5.639128,-2.912208 9.257812,-2.84961 h 0.0039 l 0.09766,0.002 0.04492,-0.0039 c 0.214425,-0.02098 0.341405,0.130349 0.291015,0.337891 -0.04328,0.152856 -0.176108,0.242733 -0.333984,0.21875 l -0.05469,-0.0078 h -0.05273 c -3.443787,-0.06527 -6.604649,0.888973 -8.916016,2.728516 -2.212968,1.761166 -4.999377,4.77776 -5.43164,9.078125 -0.08175,0.812806 -0.122262,1.526256 -0.15625,2.142578 -0.01761,0.319815 -0.100955,1.461633 -0.103516,1.486328 l -0.002,0.0078 v 0.0098 c -0.130557,1.57693 -0.756686,3.072338 -1.789063,4.271484 l -0.0039,0.002 -0.002,0.0039 c -1.405231,1.66579 -3.307951,2.835117 -5.427734,3.339844 -0.137551,0.02528 -0.168489,0.004 -0.205078,-0.02344 -0.03831,-0.0287 -0.08724,-0.100482 -0.105469,-0.189453 -0.01822,-0.08897 -5.06e-4,-0.173396 0.02344,-0.214844 0.02394,-0.04145 0.03183,-0.07521 0.1875,-0.107422 l 0.01563,-0.002 0.01563,-0.0039 c 1.956714,-0.483738 3.71551,-1.564853 5.03125,-3.091797 l 0.0098,-0.01367 0.01172,-0.01172 c 1.244781,-1.572295 1.732846,-2.859069 1.734375,-4.480468 v -0.05078 l -0.0059,-0.04883 c -0.111393,-0.928565 -0.53777,-1.790166 -1.208984,-2.441406 l 0.04297,0.04297 c -1.527913,-1.719111 -2.72256,-3.708143 -3.525391,-5.863281 -0.961567,-3.053609 -0.997503,-6.323302 -0.09961,-9.396485 v -0.002 c 0.644828,-2.216737 2.855635,-5.831031 5.599609,-7.949219 2.058898,-1.5893 3.400144,-2.505264 9.972656,-3.652343 5.529012,-0.965 16.948287,-2.711025 20.3125,-3.222657 z M 45.056641,37.621094 c -0.0056,-9.5e-5 -0.01006,0.004 -0.01563,0.0039 l 0.06641,-0.0039 H 45.0625 Z" />
  <path
     d="M 42.51965,0 A 42.51968,42.51968 0 1 0 85.03936,42.51973 42.51969,42.51969 0 0 0 42.51965,0 Z m 0,80.78741 a 38.26773,38.26773 0 1 1 38.2677,-38.26768 38.311,38.311 0 0 1 -38.2677,38.26769 z"
     id="path1412" />
</svg>
