<svg version="1.1" id="innogy_picto_leaf.svg" xmlns="http://www.w3.org/2000/svg" xmlns:xlink="http://www.w3.org/1999/xlink" viewBox="0 0 85.04 85.04">
  	<path d="M81.3373,2.64163a3.52723,3.52723,0,0,0-3.21278-1.18258c-6.52713.99265-28.65923,4.37682-39.42695,6.25615-12.86335,2.245-15.99509,4.27233-20.0389,7.39382C12.98942,19.48535,8.62237,26.58865,7.23912,31.34387a32.97445,32.97445,0,0,0,.209,19.18251A37.65958,37.65958,0,0,0,14.60851,62.4479a6.31462,6.31462,0,0,1,1.8725,3.77991c-0.00263,2.88049-.71812,4.78959-3.0209,7.69825A17.25192,17.25192,0,0,1,4.5312,79.41222a2.12669,2.12669,0,0,0,.85349,4.16686A21.35407,21.35407,0,0,0,16.795,76.5666a16.13056,16.13056,0,0,0,3.85121-9.19334c0.02945-.284.17313-2.28573,0.21018-2.95862,0.06592-1.19528.14062-2.5507,0.29491-4.08484,0.77683-7.72828,5.83477-13.24471,9.94109-16.51268C35.228,40.52572,40.99193,38.7494,47.355,38.87a2.18622,2.18622,0,0,0,2.44035-1.59663A2.13236,2.13236,0,0,0,47.523,34.61819l-0.10058-.001c-7.33863-.12695-14.07376,1.9682-18.97839,5.87189-6.45347,5.13473-10.36526,11.43636-11.37915,18.28441A32.989,32.989,0,0,1,11.49,49.20221a28.67831,28.67831,0,0,1-.167-16.6699c1.17818-4.04919,5.21614-10.41423,9.93425-14.05621,3.30409-2.55021,5.69073-4.39244,18.17178-6.5706,10.17984-1.7768,30.60106-4.911,38.22289-6.07208-2.29778,7.60035-8.21653,27.32143-8.21653,27.32143-1.29391,4.53843-5.23128,18.349-8.55734,23.04421A27.73916,27.73916,0,0,1,48.3413,66.44875a28.51334,28.51334,0,0,1-16.89887,1.27731,2.12661,2.12661,0,0,0-.98923,4.13659,31.27436,31.27436,0,0,0,7.29664.85935,33.80416,33.80416,0,0,0,12.12656-2.30657A31.90351,31.90351,0,0,0,64.34859,58.658C68.09554,53.37,72.04073,39.53112,73.526,34.32132c0,0,6.42558-21.39924,8.52414-28.33653A3.52375,3.52375,0,0,0,81.3373,2.64163Z"/>
</svg>
