<svg width="60px" height="90px" viewBox="690 15 60 90" version="1.1" xmlns="http://www.w3.org/2000/svg" xmlns:xlink="http://www.w3.org/1999/xlink">
    <g id="innogy_logo_M-S_p_4C_my" stroke="none" stroke-width="1" fill="none" fill-rule="evenodd" transform="translate(690.000000, 15.000000)">
        <g id="Group-3" transform="translate(0.000000, 73.000000)">
            <path d="M1.20739437,13.5598554 C1.7706338,13.5598554 2.12725352,13.2139157 2.12725352,12.6318193 L2.12725352,5.29642169 C2.12725352,4.71391566 1.7706338,4.36818072 1.20739437,4.36818072 C0.64415493,4.36818072 0.268732394,4.71391566 0.268732394,5.29642169 L0.268732394,12.6318193 C0.268732394,13.2139157 0.64415493,13.5598554 1.20739437,13.5598554 M1.20739437,2.37733735 C1.87584507,2.37733735 2.39598592,1.88351807 2.39598592,1.20679518 C2.39598592,0.548506024 1.87584507,0.0544819277 1.20739437,0.0544819277 C0.520140845,0.0544819277 0,0.548506024 0,1.20679518 C0,1.88351807 0.520140845,2.37733735 1.20739437,2.37733735 M31.565493,13.7964217 C34.5130986,13.7964217 36.8410563,11.7945181 36.8410563,9.00959036 C36.8410563,6.15195181 34.5130986,4.14984337 31.565493,4.14984337 C28.5240845,4.14984337 26.2335211,6.15195181 26.2335211,9.00959036 C26.2335211,11.7945181 28.5240845,13.7964217 31.565493,13.7964217 M31.5842958,12.2313976 C29.4441549,12.2313976 27.9984507,10.8662771 27.9984507,9.00959036 C27.9984507,7.06216867 29.4441549,5.67881928 31.5842958,5.67881928 C33.6682394,5.67881928 35.076338,7.06216867 35.076338,9.00959036 C35.076338,10.8662771 33.6682394,12.2313976 31.5842958,12.2313976 M42.9802817,17 C46.4535211,17 47.9744366,15.0888313 47.9744366,11.7578554 L47.9744366,4.85954217 C47.9744366,4.55046988 47.8052113,4.40484337 47.4864085,4.40484337 L47.2983803,4.40484337 C46.9041549,4.40484337 46.3599296,4.62318072 46.2659155,5.27839759 C45.4208451,4.58651807 44.2945775,4.14984337 43.0552817,4.14984337 C40.1640845,4.14984337 38.1365493,6.26112048 38.1365493,8.90042169 C38.1365493,11.4668072 40.1078873,13.4689157 43.0552817,13.4689157 C44.2383803,13.4689157 45.3648592,13.0867229 46.209507,12.4497349 C46.209507,14.2333012 45.3082394,15.4345663 43.0552817,15.4345663 C41.5721831,15.4345663 40.5959155,14.7611205 40.1640845,14.3606988 C40.0328873,14.2515301 39.9576761,14.1968434 39.788662,14.1968434 C39.4506338,14.1968434 38.9814085,14.5972651 38.9814085,15.2162289 C38.9814085,16.0350964 40.7649296,17 42.9802817,17 M43.2619014,11.9399398 C41.253169,11.9399398 39.9200704,10.7022169 39.9200704,8.88219277 C39.9200704,7.02571084 41.253169,5.67881928 43.2619014,5.67881928 C44.2569718,5.67881928 45.3272535,6.11549398 45.9280986,6.78893976 C46.1530986,7.02571084 46.2659155,7.26227711 46.2659155,7.58998795 L46.2659155,10.1381446 C46.2659155,10.4476265 46.115493,10.7206506 45.8902817,10.975241 C45.3082394,11.5942048 44.2383803,11.9399398 43.2619014,11.9399398 M9.58077465,4.14984337 C7.94746479,4.14984337 6.65197183,4.71391566 5.76971831,5.38756627 C5.73190141,4.69609639 5.46908451,4.40484337 4.73704225,4.40484337 L4.45542254,4.40484337 C4.17380282,4.40484337 4.02359155,4.51380723 4.02359155,4.84151807 L4.02359155,12.8864096 C4.02359155,13.359747 4.38021127,13.5598554 4.90605634,13.5598554 C5.43169014,13.5598554 5.76971831,13.359747 5.76971831,12.8864096 L5.76971831,7.73540964 C5.76971831,7.35321687 5.97612676,7.00768675 6.27633803,6.77071084 C6.93359155,6.26112048 7.92866197,5.76975904 9.14894366,5.76975904 C10.9512676,5.76975904 11.8525352,6.73466265 11.8525352,8.40885542 L11.8525352,12.8864096 C11.8525352,13.359747 12.2091549,13.5598554 12.7347887,13.5598554 C13.2604225,13.5598554 13.5984507,13.359747 13.5984507,12.8864096 L13.5984507,8.35437349 C13.5984507,5.49673494 12.1715493,4.14984337 9.58077465,4.14984337 M20.8453521,4.14984337 C19.2120423,4.14984337 17.9165493,4.71391566 17.0342958,5.38756627 C16.9966901,4.69609639 16.7338732,4.40484337 16.0016197,4.40484337 L15.72,4.40484337 C15.4383803,4.40484337 15.288169,4.51380723 15.288169,4.84151807 L15.288169,12.8864096 C15.288169,13.359747 15.6447887,13.5598554 16.1706338,13.5598554 C16.6962676,13.5598554 17.0342958,13.359747 17.0342958,12.8864096 L17.0342958,7.73540964 C17.0342958,7.35321687 17.2407042,7.00768675 17.5411268,6.77071084 C18.198169,6.26112048 19.1932394,5.76975904 20.4135211,5.76975904 C22.2158451,5.76975904 23.1171127,6.73466265 23.1171127,8.40885542 L23.1171127,12.8864096 C23.1171127,13.359747 23.4737324,13.5598554 23.9993662,13.5598554 C24.525,13.5598554 24.8630282,13.359747 24.8630282,12.8864096 L24.8630282,8.35437349 C24.8630282,5.49673494 23.4361268,4.14984337 20.8453521,4.14984337 M59.1261972,4.45912048 C58.4691549,4.45912048 58.0373239,4.65943373 57.8123239,5.13277108 L54.8269014,11.5397229 L51.7478873,5.13277108 C51.5224648,4.65943373 50.996831,4.45912048 50.3397887,4.45912048 C49.701338,4.45912048 49.4011268,4.69609639 49.6451408,5.1690241 L53.6440141,13.068494 C53.7380282,13.2686024 53.7380282,13.5053735 53.6254225,13.687253 C53.1371831,14.5790361 52.5739437,15.3436265 51.5976761,15.3436265 C51.2222535,15.3436265 50.8846479,15.1797711 50.6778169,15.0161205 C50.5276056,14.906747 50.4711972,14.8520602 50.3021831,14.8520602 C49.9643662,14.8520602 49.4949296,15.2709157 49.4949296,15.834988 C49.4949296,16.3083253 50.3021831,17 51.5976761,17 C53.5692254,17 54.7142958,15.3071687 55.7279577,13.2868313 L59.8020423,5.1690241 C60.0462676,4.69609639 59.7456338,4.45912048 59.1261972,4.45912048" id="Fill-1" fill="#000000"></path>
        </g>
        <path d="M30.5,28.8999571 C27.9399594,28.8999571 25.857083,31.030706 25.857083,33.6500643 L25.857083,58.3501501 C25.857083,60.969294 27.9399594,63.1002574 30.5,63.1002574 C33.0600406,63.1002574 35.142917,60.969294 35.142917,58.3501501 L35.142917,33.6500643 C35.142917,31.030706 33.0600406,28.8999571 30.5,28.8999571 M30.5,65 C26.9158173,65 24,62.0170802 24,58.3501501 L24,33.6500643 C24,29.9831343 26.9158173,27 30.5,27 C34.0841827,27 37,29.9831343 37,33.6500643 L37,58.3501501 C37,62.0170802 34.0841827,65 30.5,65" id="Fill-4" fill="#000000"></path>
        <path d="M29.5,1.87494708 C26.3982305,1.87494708 23.8749471,4.39823046 23.8749471,7.5 C23.8749471,10.6015579 26.3982305,13.1250529 29.5,13.1250529 C32.6017695,13.1250529 35.1250529,10.6015579 35.1250529,7.5 C35.1250529,4.39823046 32.6017695,1.87494708 29.5,1.87494708 M29.5,15 C25.3644484,15 22,11.6355516 22,7.5 C22,3.3644484 25.3644484,0 29.5,0 C33.6357633,0 37,3.3644484 37,7.5 C37,11.6355516 33.6357633,15 29.5,15" id="upper-circle" fill="#000000"></path>
        <path d="M34.7048571,19.3007052 C35.5929024,19.0078622 36.296146,18.8463371 36.6854647,18.8463371 C36.7166622,18.8463371 36.7452599,18.847386 36.7710412,18.8494837 C36.8925814,18.8587137 36.9822742,18.9235335 37.0308037,19.0370207 C37.0713171,19.1303696 37.0628678,19.2449056 37.0485689,19.3252486 C36.9198792,20.0483358 36.0823132,21.8171409 31.9232971,25.5355754 L31.2124708,26.1726557 C31.9033654,26.349704 32.5507134,26.6320583 33.1356664,27 L33.2346751,26.9102172 C38.960932,21.7904998 38.989963,19.8203127 38.9997122,19.1729535 C39.0092448,18.5358732 38.7817631,17.9797652 38.3428317,17.5639954 C37.9409473,17.1832575 37.4066902,16.9982378 36.7095128,16.9982378 C35.1060915,16.9982378 32.7179666,17.9787164 29.5189235,19.3638468 C28.9120889,19.6271118 28.3063375,19.9136616 27.7207345,20.1911912 C26.602391,20.720658 25.5462258,21.2205468 24.5819199,21.5127604 C23.6366791,21.7988907 22.9663662,21.9320965 22.4721893,21.9320965 C22.225859,21.9320965 22.0287082,21.8995817 21.869471,21.8316153 C21.3928426,21.6300235 21.3373804,21.0332196 21.3163654,20.8085528 L21.312899,20.7724719 C21.2706524,20.3674004 21.367278,19.917018 21.4444051,19.6136864 C21.6207576,18.9145133 21.8575553,18.3340717 22.1872955,17.7303453 C22.5683815,17.0320113 23.2263454,16.0811107 23.9133402,15.1354545 C23.9133402,15.1354545 23.9727021,15.0605655 23.9133402,15.0194501 C23.8249473,14.9581964 23.7361211,15.0611949 23.7361211,15.0611949 C23.7361211,15.0611949 23.1559344,15.6523349 22.5906964,16.3085045 C22.0991192,16.8792966 21.5475302,17.5958808 21.2494208,18.0508783 C19.7681897,20.313279 19.603103,21.9788758 20.7589268,23.0023578 C21.2028412,23.3954722 21.7958102,23.5869949 22.5720646,23.5869949 L22.5727145,23.5869949 C24.5019763,23.5869949 27.3223165,22.3652775 30.3083934,21.0724471 C31.9094315,20.3791477 33.4216434,19.7242367 34.7048571,19.3007052" id="Fill-6" fill="#F6BC25"></path>
    </g>
</svg>