<svg version="1.1" id="pdf_1_" xmlns="http://www.w3.org/2000/svg" xmlns:xlink="http://www.w3.org/1999/xlink" x="0px" y="0px"
	 viewBox="0 0 418 418" style="enable-background:new 0 0 418 418;" xml:space="preserve">
	<path d="M368.6,292.5c5.7,0,10.4-4.7,10.4-10.5V13.9C379,6.2,372.8,0,365.1,0H115.3c-7.7,0-13.9,6.2-13.9,13.9v48.8H52.8
		c-7.7,0-13.9,6.2-13.9,13.9v327.5c0,7.7,6.2,13.9,13.9,13.9h249.9c7.7,0,13.9-6.2,13.9-13.9v-48.8h52.1c5.7,0,10.4-4.7,10.4-10.5
		s-4.7-10.5-10.4-10.5h-52.1V76.6c0-7.7-6.2-13.9-13.9-13.9H122.2V20.9h236v261.2C358.2,287.8,362.9,292.5,368.6,292.5z M295.7,83.6
		v313.5h-236V83.6H295.7z"/>
	<path d="M229.4,220.6h7.2v49.3c0,2.2,1.2,4,5.9,4h3c4.6,0,6-1.8,6-4v-49.3h16.1c1.8,0,3.4-1,3.4-4.4v-1.8c0-3.4-1.6-4.4-3.4-4.4
		h-16.1v-1.8c0-11,5.2-15.4,15.5-15.4h2.7c1.8,0,3.3-1.1,3.3-4.4v-3c0-3.3-1.5-4.4-3.3-4.4h-5.2c-18.3,0-27.9,10.2-27.9,27.1v1.8
		h-7.2c-1.8,0-3.3,1-3.3,4.4v1.8C226.1,219.5,227.6,220.6,229.4,220.6z"/>
	<path d="M89.6,298.4h3.1c4.5,0,5.9-1.8,5.9-4v-24.8c4.2,3.7,10.1,5.6,17.8,5.6c18.8,0,28.3-10.1,28.3-31.9v-2.9
		c0-22.1-9.8-31.7-30.6-31.7s-30.4,10.1-30.4,31.9v53.8C83.7,296.6,85.1,298.4,89.6,298.4z M98.6,240.6c0-15.7,4.1-21,15.7-21
		c11.4,0,15.8,5.3,15.8,21v2.7c0,15.7-4.4,21-15.8,21c-11.4,0-15.7-5.5-15.7-21V240.6z"/>
	<path d="M186.3,275.3c20.6,0,30.2-10.1,30.2-31.9v-58.3c0-2-1.4-4-5.9-4h-2.9c-4.8,0-6.1,1.9-6.1,4v29.3c-4.2-3.7-9.9-5.6-17.7-5.6
		c-19.2,0-28.7,10.1-28.7,31.7v2.9C155.2,265.6,165,275.3,186.3,275.3z M170.2,240.6c0-15.7,4.4-21,15.9-21c11.4,0,15.5,5.3,15.5,21
		v2.7c0,15.5-4.1,21-15.5,21c-11.6,0-15.9-5.3-15.9-21V240.6z"/>
</svg>
