<svg version="1.1" id="innogy_picto_c-photo.svg" xmlns="http://www.w3.org/2000/svg" xmlns:xlink="http://www.w3.org/1999/xlink" viewBox="0 0 85.04 85.04">
  <path d="M42.54349-.03873A42.51968,42.51968,0,1,0,85.0632,42.481,42.51969,42.51969,0,0,0,42.54349-.03873Zm0,80.78741A38.26773,38.26773,0,1,1,80.81119,42.481,38.311,38.311,0,0,1,42.54349,80.74869Z"/>
    <path d="M60.94488,28.34646H55.27559A7.05965,7.05965,0,0,0,48.189,21.25984H36.85039a7.05487,7.05487,0,0,0-7.08661,7.08661l-5.6794.04756a4.22223,4.22223,0,0,0-4.24316,4.20441V55.27559a4.24208,4.24208,0,0,0,4.25327,4.25252H60.94488a4.24742,4.24742,0,0,0,4.25956-4.25252V32.59843A4.27688,4.27688,0,0,0,60.94488,28.34646Zm0.0076,26.92689H24.09317l0.00132-22.67492h7.79528a2.12608,2.12608,0,0,0,2.126-2.126v-2.126a2.8022,2.8022,0,0,1,2.83465-2.83465L48.189,25.50494a2.82669,2.82669,0,0,1,2.83465,2.84151v2.126a2.12584,2.12584,0,0,0,2.126,2.126h7.79528Z"/>
    <path d="M42.51971,35.433a8.50394,8.50394,0,1,0,8.50391,8.504A8.504,8.504,0,0,0,42.51971,35.433ZM42.51965,48.189a4.252,4.252,0,1,1,4.252-4.252A4.25672,4.25672,0,0,1,42.51965,48.189Z"/>
    <circle cx="54.56694" cy="36.8532" r="2.12598"/>
</svg>
