<svg version="1.1" id="innogy_picto_c-plus.svg" xmlns="http://www.w3.org/2000/svg" xmlns:xlink="http://www.w3.org/1999/xlink"
	 x="0px" y="0px" viewBox="0 0 44 44" style="enable-background:new 0 0 44 44;" xml:space="preserve">
<path d="M36,8
	c7.7,7.7,7.7,20.3,0,28s-20.3,7.7-28,0S0.3,15.7,8,8c0,0,0,0,0,0C15.7,0.3,28.3,0.3,36,8 M37.6,6.4C29-2.1,15-2.1,6.4,6.4
	s-8.6,22.5,0,31.1s22.5,8.6,31.1,0c0,0,0,0,0,0C46.1,29,46.1,15,37.6,6.4C37.6,6.4,37.6,6.4,37.6,6.4L37.6,6.4z M23.1,30.8l0-7.7
	h7.7c0.6,0,1.1-0.5,1.1-1.1c0,0,0,0,0,0c0-0.6-0.5-1.1-1.1-1.1l-7.7,0l0-7.7c0-0.6-0.5-1.1-1.1-1.1c-0.6,0-1.1,0.5-1.1,1.1l0,7.7
	l-7.7,0c-0.6,0-1.1,0.5-1.1,1.1c0,0.6,0.5,1.1,1.1,1.1c0,0,0,0,0,0l7.7,0l0,7.7c0,0.6,0.5,1.1,1.1,1.1S23.1,31.4,23.1,30.8
	C23.1,30.8,23.1,30.8,23.1,30.8z"/>
</svg>
