<svg version="1.1" id="innogy_picto_power_on_off.svg" xmlns="http://www.w3.org/2000/svg" xmlns:xlink="http://www.w3.org/1999/xlink" viewBox="0 0 85.04 85.04">
  	<path d="M42.521,85.04C19.07764,85.04.00537,65.66113,0.00537,41.84033A43.21452,43.21452,0,0,1,28.46875,1.05664a2.12585,2.12585,0,0,1,1.4248,4.00586A38.95493,38.95493,0,0,0,4.25732,41.84033c0,21.47607,17.165,38.94775,38.26367,38.94775,21.09912,0,38.26416-17.47168,38.26416-38.94775A38.95267,38.95267,0,0,0,55.14063,5.06006a2.12615,2.12615,0,0,1,1.42383-4.00684A43.21375,43.21375,0,0,1,85.03711,41.84033C85.03711,65.66113,65.96484,85.04,42.521,85.04Zm2.12549-43.24609V2.16309a2.12622,2.12622,0,0,0-4.25244,0V41.79395A2.12622,2.12622,0,0,0,44.64648,41.79395Z"/>
</svg>
