<?xml version="1.0" encoding="utf-8"?>
<!-- Generator: Adobe Illustrator 23.0.2, SVG Export Plug-In . SVG Version: 6.00 Build 0)  -->
<svg version="1.1" id="innogy_picto_24h.svg" xmlns="http://www.w3.org/2000/svg" xmlns:xlink="http://www.w3.org/1999/xlink"
	 x="0px" y="0px" viewBox="0 0 85 85" enable-background="new 0 0 85 85" xml:space="preserve">
<path d="M81.6,25.8c-2.6-6-6.5-11.3-11.4-15.6l3.2-0.4c1.2-0.1,2-1.2,1.9-2.4c-0.1-1.2-1.2-2-2.4-1.9l-8.5,1c-1.2,0.1-2,1.2-1.9,2.4
	c0,0,0,0,0,0l1,8.4c0.1,1.2,1.2,2,2.4,1.9c1.2-0.1,2-1.2,1.9-2.4l-0.4-3.5c16,13.7,17.9,37.9,4.2,53.9s-37.9,17.9-53.9,4.2
	s-17.9-37.9-4.2-53.9c9.6-11.2,24.8-15.9,39.1-12c1.1,0.3,2.3-0.4,2.6-1.5c0.3-1.1-0.4-2.3-1.5-2.6C44.5-1,34.6-0.4,25.8,3.4
	C4.2,12.7-5.8,37.7,3.4,59.3s34.2,31.6,55.8,22.4C80.8,72.4,90.8,47.4,81.6,25.8z"/>
</svg>
