<svg version="1.1" id="innogy_picto_c-speaker.svg" xmlns="http://www.w3.org/2000/svg" xmlns:xlink="http://www.w3.org/1999/xlink" viewBox="0 0 85.04 85.04" width="85.04" height="85.04">
    <path d="M42.51969,4.252A38.26773,38.26773,0,1,1,4.252,42.51969,38.31108,38.31108,0,0,1,42.51969,4.252m0-4.252A42.51969,42.51969,0,1,0,85.03937,42.51969,42.51968,42.51968,0,0,0,42.51969,0h0Zm1.61874,59.48707a2.22112,2.22112,0,0,0-.21132-2.97771l-8.90933-8.91554a2.83364,2.83364,0,0,0-2.00446-.83083l-6.79261.00014-0.00879-8.51h6.80144a2.83364,2.83364,0,0,0,2.0044-.83083l9.00471-9.011a2.1279,2.1279,0,0,0-.16191-3.15549,2.20793,2.20793,0,0,0-2.92994.23211L32.42627,33.9982H26.21191a4.23772,4.23772,0,0,0-4.24316,4.22267v8.49029a4.28005,4.28005,0,0,0,4.24316,4.30671h6.21484l8.58936,8.59486A2.124,2.124,0,0,0,44.13842,59.48707ZM51.11426,50.042a10.69532,10.69532,0,0,0,0-15.04443,2.12582,2.12582,0,1,0-3.01562,2.99707,6.4325,6.4325,0,0,1,0,9.04932A2.12616,2.12616,0,0,0,51.11426,50.042Zm6.02344,6.02441a19.261,19.261,0,0,0,0-27.09277,2.12616,2.12616,0,0,0-3.01562,2.998,14.997,14.997,0,0,1,0,21.09668A2.12616,2.12616,0,0,0,57.1377,56.06641Z"/>
</svg>
