<?xml version="1.0" encoding="UTF-8" standalone="no"?>
<svg
   xmlns:dc="http://purl.org/dc/elements/1.1/"
   xmlns:cc="http://creativecommons.org/ns#"
   xmlns:rdf="http://www.w3.org/1999/02/22-rdf-syntax-ns#"
   xmlns:svg="http://www.w3.org/2000/svg"
   xmlns="http://www.w3.org/2000/svg"
   version="1.1"
   viewbox="0 0 70 47"
   height="47"
   width="70">
  <path
     d="M53.319,17.989 L52.511,17.989 C52.284,17.989 52.136,17.898 51.977,17.726 L51.271,16.969 C51.010,16.694 51.134,16.431 51.510,16.431 L51.681,16.431 C52.079,16.431 52.193,16.522 52.534,16.889 L52.921,17.325 L53.297,16.889 C53.626,16.522 53.763,16.431 54.162,16.431 L54.355,16.431 C54.719,16.431 54.822,16.694 54.560,16.969 L53.866,17.726 C53.707,17.898 53.547,17.989 53.319,17.989 ZM53.286,23.077 C53.650,23.077 53.957,23.020 54.253,22.916 L54.515,22.825 C54.719,22.756 54.822,22.859 54.879,23.123 L54.958,23.467 C55.016,23.719 54.981,23.856 54.765,23.936 L54.446,24.062 C54.014,24.234 53.491,24.338 52.933,24.338 C51.419,24.338 50.372,23.650 50.372,21.622 L50.372,21.404 C50.372,19.376 51.419,18.688 52.933,18.688 C53.491,18.688 54.014,18.791 54.446,18.963 L54.765,19.089 C54.981,19.158 55.016,19.307 54.958,19.559 L54.879,19.903 C54.822,20.166 54.719,20.270 54.515,20.201 L54.253,20.109 C53.957,20.006 53.650,19.949 53.286,19.949 C52.432,19.949 51.931,20.292 51.931,21.404 L51.931,21.622 C51.931,22.733 52.432,23.077 53.286,23.077 ZM49.606,24.223 L49.038,24.223 C48.491,24.223 48.184,24.016 48.059,23.765 L45.954,20.602 C45.851,20.441 45.851,20.258 45.954,20.086 L48.070,16.889 C48.184,16.637 48.491,16.431 49.038,16.431 L49.595,16.431 C50.142,16.431 50.130,16.648 49.983,16.889 L47.502,20.327 L49.994,23.765 C50.142,24.016 50.153,24.223 49.606,24.223 ZM44.861,16.431 C45.419,16.431 45.556,16.637 45.556,16.878 L45.556,23.776 C45.556,24.016 45.419,24.223 44.861,24.223 L44.543,24.223 C43.985,24.223 43.860,24.016 43.860,23.776 L43.860,16.878 C43.860,16.637 43.985,16.431 44.543,16.431 L44.861,16.431 ZM42.298,24.084 C42.298,28.706 40.989,30.968 37.376,30.968 C33.665,30.968 32.454,28.628 32.454,24.124 C32.454,19.502 33.841,17.201 37.415,17.201 C41.146,17.201 42.298,19.561 42.298,24.084 ZM35.130,24.104 C35.130,27.545 35.520,28.804 37.376,28.804 C39.192,28.804 39.622,27.545 39.622,24.104 C39.622,20.662 39.232,19.364 37.376,19.364 C35.560,19.364 35.130,20.662 35.130,24.104 ZM30.581,24.084 C30.581,28.706 29.272,30.968 25.659,30.968 C21.948,30.968 20.737,28.628 20.737,24.124 C20.737,19.502 22.124,17.201 25.698,17.201 C29.429,17.201 30.581,19.561 30.581,24.084 ZM23.413,24.104 C23.413,27.545 23.803,28.804 25.659,28.804 C27.475,28.804 27.905,27.545 27.905,24.104 C27.905,20.662 27.514,19.364 25.659,19.364 C23.842,19.364 23.413,20.662 23.413,24.104 ZM17.281,17.398 L17.886,17.398 C18.570,17.398 18.745,17.692 18.745,18.027 L18.745,30.024 C18.745,30.437 18.531,30.771 17.613,30.771 L17.046,30.771 C16.129,30.771 15.913,30.437 15.913,30.024 L15.913,20.112 L13.570,21.311 C13.296,21.449 12.867,21.468 12.632,20.820 L12.535,20.564 C12.281,19.895 12.417,19.699 12.691,19.541 L15.777,17.771 C16.285,17.496 16.675,17.398 17.281,17.398 ZM69.148,32.808 L57.892,45.789 C57.231,46.559 56.268,47.003 55.253,47.003 L12.247,47.003 C11.280,47.003 10.497,46.214 10.497,45.241 C10.497,44.268 11.280,43.479 12.247,43.479 L55.253,43.479 L66.507,30.495 L66.501,16.585 L55.253,3.536 L3.499,3.536 L3.499,45.214 C3.499,46.186 2.716,46.976 1.750,46.976 C0.783,46.976 -0.000,46.186 -0.000,45.214 L-0.000,3.536 C-0.000,1.592 1.569,0.012 3.499,0.012 L55.253,0.012 C56.268,0.012 57.231,0.455 57.897,1.227 L69.144,14.275 C69.697,14.918 70.000,15.738 70.000,16.585 L70.000,30.503 C70.000,31.349 69.697,32.168 69.148,32.808 Z" />
</svg>
